ComicNeue-Angular_Light_Oblique.ufo
<glyph name="quotedbl" format="1">
  <advance width="302"/>
  <unicode hex="0022"/>
  <outline>
    <contour>
      <point x="166" y="530" type="line"/>
      <point x="201" y="696" type="line"/>
      <point x="165" y="688" type="line"/>
      <point x="130" y="523" type="line"/>
    </contour>
    <contour>
      <point x="291" y="530" type="line"/>
      <point x="326" y="696" type="line"/>
      <point x="290" y="688" type="line"/>
      <point x="255" y="523" type="line"/>
    </contour>
  </outline>
</glyph>
<glyph name="numbersign" format="1">
  <advance width="741"/>
  <unicode hex="0023"/>
  <outline>
    <contour>
      <point x="721" y="449" type="line"/>
      <point x="737" y="483" type="line"/>
      <point x="592" y="483" type="line"/>
      <point x="701" y="699" type="line"/>
      <point x="662" y="696" type="line"/>
      <point x="557" y="483" type="line"/>
      <point x="374" y="483" type="line"/>
      <point x="482" y="700" type="line"/>
      <point x="446" y="697" type="line"/>
      <point x="338" y="483" type="line"/>
      <point x="163" y="483" type="line"/>
      <point x="146" y="449" type="line"/>
      <point x="321" y="449" type="line"/>
      <point x="225" y="256" type="line"/>
      <point x="74" y="256" type="line"/>
      <point x="56" y="221" type="line"/>
      <point x="206" y="221" type="line"/>
      <point x="97" y="1" type="line"/>
      <point x="134" y="4" type="line"/>
      <point x="242" y="221" type="line"/>
      <point x="425" y="221" type="line"/>
      <point x="315" y="1" type="line"/>
      <point x="353" y="4" type="line"/>
      <point x="460" y="221" type="line"/>
      <point x="625" y="221" type="line"/>
      <point x="643" y="256" type="line"/>
      <point x="479" y="256" type="line"/>
      <point x="575" y="449" type="line"/>
    </contour>
    <contour>
      <point x="443" y="256" type="line"/>
      <point x="260" y="256" type="line"/>
      <point x="356" y="449" type="line"/>
      <point x="540" y="449" type="line"/>
    </contour>
  </outline>
</glyph>
<glyph name="percent" format="1">
  <advance width="718"/>
  <unicode hex="0025"/>
  <outline>
    <contour>
      <point x="231" y="440" type="curve" smooth="yes"/>
      <point x="311" y="440"/>
      <point x="393" y="514"/>
      <point x="393" y="598" type="curve" smooth="yes"/>
      <point x="393" y="657"/>
      <point x="350" y="702"/>
      <point x="287" y="702" type="curve" smooth="yes"/>
      <point x="206" y="702"/>
      <point x="124" y="628"/>
      <point x="124" y="544" type="curve" smooth="yes"/>
      <point x="124" y="485"/>
      <point x="168" y="440"/>
    </contour>
    <contour>
      <point x="279" y="667" type="curve" smooth="yes"/>
      <point x="324" y="667"/>
      <point x="357" y="633"/>
      <point x="357" y="590" type="curve" smooth="yes"/>
      <point x="357" y="530"/>
      <point x="296" y="475"/>
      <point x="238" y="475" type="curve" smooth="yes"/>
      <point x="192" y="475"/>
      <point x="161" y="509"/>
      <point x="161" y="552" type="curve" smooth="yes"/>
      <point x="161" y="612"/>
      <point x="221" y="667"/>
    </contour>
    <contour>
      <point x="475" y="-8" type="curve" smooth="yes"/>
      <point x="554" y="-8"/>
      <point x="637" y="66"/>
      <point x="637" y="149" type="curve" smooth="yes"/>
      <point x="637" y="209"/>
      <point x="593" y="254"/>
      <point x="530" y="254" type="curve" smooth="yes"/>
      <point x="449" y="254"/>
      <point x="369" y="179"/>
      <point x="369" y="95" type="curve" smooth="yes"/>
      <point x="369" y="36"/>
      <point x="412" y="-8"/>
    </contour>
    <contour>
      <point x="523" y="219" type="curve" smooth="yes"/>
      <point x="568" y="219"/>
      <point x="601" y="185"/>
      <point x="601" y="142" type="curve" smooth="yes"/>
      <point x="601" y="82"/>
      <point x="540" y="27"/>
      <point x="482" y="27" type="curve" smooth="yes"/>
      <point x="436" y="27"/>
      <point x="405" y="61"/>
      <point x="405" y="104" type="curve" smooth="yes"/>
      <point x="405" y="164"/>
      <point x="465" y="219"/>
    </contour>
    <contour>
      <point x="634" y="697" type="line"/>
      <point x="91" y="0" type="line"/>
      <point x="135" y="0" type="line"/>
      <point x="677" y="697" type="line"/>
    </contour>
  </outline>
</glyph>
<glyph name="ampersand" format="1">
  <advance width="652"/>
  <unicode hex="0026"/>
  <outline>
    <contour>
      <point x="465" y="154" type="curve"/>
      <point x="544" y="26" type="line"/>
      <point x="512" y="4" type="line"/>
      <point x="439" y="122" type="line"/>
      <point x="366" y="36"/>
      <point x="266" y="-4"/>
      <point x="207" y="-4" type="curve" smooth="yes"/>
      <point x="121" y="-4"/>
      <point x="40" y="52"/>
      <point x="40" y="143" type="curve" smooth="yes"/>
      <point x="40" y="278"/>
      <point x="165" y="343"/>
      <point x="266" y="393" type="curve"/>
      <point x="244" y="425"/>
      <point x="214" y="480"/>
      <point x="214" y="533" type="curve" smooth="yes"/>
      <point x="214" y="617"/>
      <point x="305" y="698"/>
      <point x="388" y="698" type="curve" smooth="yes"/>
      <point x="454" y="698"/>
      <point x="504" y="646"/>
      <point x="504" y="586" type="curve" smooth="yes"/>
      <point x="504" y="483"/>
      <point x="421" y="435"/>
      <point x="321" y="383" type="curve"/>
      <point x="446" y="183" type="line"/>
      <point x="461" y="205"/>
      <point x="494" y="263"/>
      <point x="520" y="312" type="curve"/>
      <point x="541" y="281" type="line"/>
      <point x="514" y="232"/>
      <point x="480" y="175"/>
    </contour>
    <contour>
      <point x="380" y="663" type="curve" smooth="yes"/>
      <point x="320" y="663"/>
      <point x="250" y="607"/>
      <point x="250" y="538" type="curve" smooth="yes"/>
      <point x="250" y="491"/>
      <point x="280" y="439"/>
      <point x="302" y="411" type="curve"/>
      <point x="455" y="482"/>
      <point x="470" y="532"/>
      <point x="470" y="578" type="curve" smooth="yes"/>
      <point x="470" y="622"/>
      <point x="428" y="663"/>
    </contour>
    <contour>
      <point x="214" y="31" type="curve" smooth="yes"/>
      <point x="265" y="31"/>
      <point x="353" y="68"/>
      <point x="420" y="150" type="curve"/>
      <point x="286" y="368" type="line"/>
      <point x="180" y="318"/>
      <point x="77" y="268"/>
      <point x="77" y="149" type="curve" smooth="yes"/>
      <point x="77" y="68"/>
      <point x="155" y="31"/>
    </contour>
  </outline>
</glyph>
<glyph name="parenleft" format="1">
  <advance width="367"/>
  <unicode hex="0028"/>
  <outline>
    <contour>
      <point x="209" y="-94" type="line"/>
      <point x="148" y="-17"/>
      <point x="112" y="107"/>
      <point x="112" y="231" type="curve" smooth="yes"/>
      <point x="112" y="450"/>
      <point x="242" y="665"/>
      <point x="416" y="792" type="curve"/>
      <point x="400" y="819" type="line"/>
      <point x="196" y="671"/>
      <point x="75" y="434"/>
      <point x="75" y="222" type="curve" smooth="yes"/>
      <point x="75" y="98"/>
      <point x="108" y="-30"/>
      <point x="178" y="-119" type="curve"/>
    </contour>
  </outline>
</glyph>
<glyph name="parenright" format="1">
  <advance width="367"/>
  <unicode hex="0029"/>
  <outline>
    <contour>
      <point x="181" y="794" type="line"/>
      <point x="211" y="759"/>
      <point x="300" y="650"/>
      <point x="300" y="468" type="curve" smooth="yes"/>
      <point x="300" y="275"/>
      <point x="192" y="63"/>
      <point x="16" y="-91" type="curve"/>
      <point x="32" y="-118" type="line"/>
      <point x="224" y="46"/>
      <point x="337" y="269"/>
      <point x="337" y="476" type="curve" smooth="yes"/>
      <point x="337" y="589"/>
      <point x="306" y="717"/>
      <point x="213" y="819" type="curve"/>
    </contour>
  </outline>
</glyph>
<glyph name="asterisk" format="1">
  <advance width="407"/>
  <unicode hex="002A"/>
  <outline>
    <contour>
      <point x="265" y="578" type="curve"/>
      <point x="255" y="583"/>
      <point x="226" y="602"/>
      <point x="213" y="607" type="curve" smooth="yes"/>
      <point x="152" y="629" type="line"/>
      <point x="133" y="596" type="line"/>
      <point x="195" y="575" type="line"/>
      <point x="208" y="569"/>
      <point x="240" y="566"/>
      <point x="257" y="563" type="curve"/>
      <point x="247" y="555"/>
      <point x="215" y="529"/>
      <point x="202" y="516" type="curve" smooth="yes"/>
      <point x="148" y="461" type="line"/>
      <point x="173" y="440" type="line"/>
      <point x="225" y="495" type="line" smooth="yes"/>
      <point x="237" y="508"/>
      <point x="257" y="538"/>
      <point x="268" y="555" type="curve"/>
      <point x="272" y="544"/>
      <point x="281" y="510"/>
      <point x="286" y="497" type="curve"/>
      <point x="314" y="440" type="line"/>
      <point x="347" y="461" type="line"/>
      <point x="319" y="517" type="line" smooth="yes"/>
      <point x="312" y="530"/>
      <point x="294" y="551"/>
      <point x="282" y="564" type="curve"/>
      <point x="295" y="567"/>
      <point x="334" y="571"/>
      <point x="349" y="576" type="curve" smooth="yes"/>
      <point x="419" y="597" type="line"/>
      <point x="416" y="630" type="line"/>
      <point x="347" y="609" type="line" smooth="yes"/>
      <point x="330" y="604"/>
      <point x="299" y="588"/>
      <point x="281" y="579" type="curve"/>
      <point x="284" y="591"/>
      <point x="300" y="628"/>
      <point x="304" y="644" type="curve" smooth="yes"/>
      <point x="319" y="713" type="line"/>
      <point x="284" y="713" type="line"/>
      <point x="269" y="644" type="line" smooth="yes"/>
      <point x="265" y="628"/>
      <point x="266" y="596"/>
    </contour>
  </outline>
</glyph>
<glyph name="plus" format="1">
  <advance width="431"/>
  <unicode hex="002B"/>
  <outline>
    <contour>
      <point x="383" y="269" type="line"/>
      <point x="239" y="269" type="line"/>
      <point x="268" y="407" type="line"/>
      <point x="231" y="399" type="line"/>
      <point x="204" y="269" type="line"/>
      <point x="68" y="269" type="line"/>
      <point x="53" y="233" type="line"/>
      <point x="196" y="233" type="line"/>
      <point x="166" y="91" type="line"/>
      <point x="202" y="98" type="line"/>
      <point x="231" y="233" type="line"/>
      <point x="367" y="233" type="line"/>
    </contour>
  </outline>
</glyph>
<glyph name="comma" format="1">
  <advance width="307"/>
  <unicode hex="002C"/>
  <outline>
    <contour>
      <point x="119" y="60" type="line"/>
      <point x="67" y="16" type="line"/>
      <point x="99" y="-6" type="line"/>
      <point x="22" y="-106" type="line"/>
      <point x="50" y="-125" type="line"/>
      <point x="171" y="29" type="line"/>
    </contour>
  </outline>
</glyph>
<glyph name="hyphen" format="1">
  <advance width="432"/>
  <unicode hex="002D"/>
  <outline>
    <contour>
      <point x="353" y="232" type="line"/>
      <point x="367" y="268" type="line"/>
      <point x="85" y="268" type="line"/>
      <point x="71" y="232" type="line"/>
    </contour>
  </outline>
</glyph>
<glyph name="period" format="1">
  <advance width="212"/>
  <unicode hex="002E"/>
  <outline>
    <contour>
      <point x="99" y="74" type="line"/>
      <point x="42" y="66" type="line"/>
      <point x="22" y="1" type="line"/>
      <point x="77" y="9" type="line"/>
    </contour>
  </outline>
</glyph>
<glyph name="zero" format="1">
  <advance width="604"/>
  <unicode hex="0030"/>
  <outline>
    <contour>
      <point x="241" y="-3" type="curve" smooth="yes"/>
      <point x="399" y="-3"/>
      <point x="578" y="229"/>
      <point x="578" y="464" type="curve" smooth="yes"/>
      <point x="578" y="595"/>
      <point x="518" y="694"/>
      <point x="413" y="694" type="curve" smooth="yes"/>
      <point x="251" y="694"/>
      <point x="74" y="458"/>
      <point x="74" y="229" type="curve" smooth="yes"/>
      <point x="74" y="97"/>
      <point x="135" y="-3"/>
    </contour>
    <contour>
      <point x="405" y="657" type="curve" smooth="yes"/>
      <point x="492" y="657"/>
      <point x="542" y="568"/>
      <point x="542" y="452" type="curve" smooth="yes"/>
      <point x="542" y="237"/>
      <point x="379" y="33"/>
      <point x="249" y="33" type="curve" smooth="yes"/>
      <point x="159" y="33"/>
      <point x="110" y="123"/>
      <point x="110" y="237" type="curve" smooth="yes"/>
      <point x="110" y="454"/>
      <point x="273" y="657"/>
    </contour>
  </outline>
</glyph>
<glyph name="one" format="1">
  <advance width="404"/>
  <unicode hex="0031"/>
  <outline>
    <contour>
      <point x="193" y="35" type="line"/>
      <point x="339" y="676" type="line"/>
      <point x="123" y="511" type="line"/>
      <point x="140" y="484" type="line"/>
      <point x="286" y="595" type="line"/>
      <point x="157" y="35" type="line"/>
      <point x="41" y="35" type="line"/>
      <point x="26" y="0" type="line"/>
      <point x="278" y="0" type="line"/>
      <point x="293" y="35" type="line"/>
    </contour>
  </outline>
</glyph>
<glyph name="two" format="1">
  <advance width="514"/>
  <unicode hex="0032"/>
  <outline>
    <contour>
      <point x="54" y="35" type="line"/>
      <point x="76" y="142"/>
      <point x="150" y="214"/>
      <point x="265" y="281" type="curve" smooth="yes"/>
      <point x="384" y="351"/>
      <point x="509" y="439"/>
      <point x="509" y="554" type="curve" smooth="yes"/>
      <point x="509" y="613"/>
      <point x="474" y="681"/>
      <point x="355" y="681" type="curve" smooth="yes"/>
      <point x="252" y="681"/>
      <point x="172" y="616"/>
      <point x="137" y="580" type="curve"/>
      <point x="155" y="554" type="line"/>
      <point x="183" y="583"/>
      <point x="257" y="646"/>
      <point x="348" y="646" type="curve" smooth="yes"/>
      <point x="402" y="646"/>
      <point x="474" y="619"/>
      <point x="474" y="547" type="curve" smooth="yes"/>
      <point x="474" y="470"/>
      <point x="409" y="403"/>
      <point x="254" y="311" type="curve" smooth="yes"/>
      <point x="123" y="234"/>
      <point x="40" y="163"/>
      <point x="16" y="18" type="curve" smooth="yes"/>
      <point x="13" y="0" type="line"/>
      <point x="397" y="0" type="line"/>
      <point x="411" y="35" type="line"/>
    </contour>
  </outline>
</glyph>
<glyph name="four" format="1">
  <advance width="508"/>
  <unicode hex="0034"/>
  <outline>
    <contour>
      <point x="338" y="9" type="line"/>
      <point x="373" y="173" type="line"/>
      <point x="432" y="173" type="line"/>
      <point x="447" y="205" type="line"/>
      <point x="380" y="205" type="line"/>
      <point x="479" y="670" type="line"/>
      <point x="32" y="179" type="line"/>
      <point x="339" y="179" type="line"/>
      <point x="303" y="2" type="line"/>
    </contour>
    <contour>
      <point x="100" y="207" type="line"/>
      <point x="423" y="566" type="line"/>
      <point x="346" y="207" type="line"/>
    </contour>
  </outline>
</glyph>
<glyph name="six" format="1">
  <advance width="536"/>
  <unicode hex="0036"/>
  <outline>
    <contour>
      <point x="440" y="687" type="line"/>
      <point x="232" y="592"/>
      <point x="51" y="394"/>
      <point x="51" y="169" type="curve" smooth="yes"/>
      <point x="51" y="69"/>
      <point x="102" y="-5"/>
      <point x="223" y="-5" type="curve" smooth="yes"/>
      <point x="376" y="-5"/>
      <point x="481" y="161"/>
      <point x="481" y="296" type="curve" smooth="yes"/>
      <point x="481" y="434"/>
      <point x="346" y="440"/>
      <point x="328" y="440" type="curve" smooth="yes"/>
      <point x="265" y="440"/>
      <point x="197" y="412"/>
      <point x="141" y="382" type="curve"/>
      <point x="211" y="506"/>
      <point x="339" y="612"/>
      <point x="445" y="656" type="curve"/>
    </contour>
    <contour>
      <point x="115" y="324" type="curve"/>
      <point x="139" y="347"/>
      <point x="220" y="405"/>
      <point x="321" y="405" type="curve" smooth="yes"/>
      <point x="353" y="405"/>
      <point x="447" y="395"/>
      <point x="447" y="289" type="curve" smooth="yes"/>
      <point x="447" y="171"/>
      <point x="356" y="29"/>
      <point x="231" y="29" type="curve" smooth="yes"/>
      <point x="160" y="29"/>
      <point x="85" y="56"/>
      <point x="85" y="169" type="curve" smooth="yes"/>
      <point x="85" y="209"/>
      <point x="97" y="275"/>
    </contour>
  </outline>
</glyph>
<glyph name="seven" format="1">
  <advance width="491"/>
  <unicode hex="0037"/>
  <outline>
    <contour>
      <point x="90" y="4" type="line"/>
      <point x="64" y="20" type="line"/>
      <point x="516" y="647" type="line"/>
      <point x="157" y="647" type="line"/>
      <point x="157" y="682" type="line"/>
      <point x="577" y="682" type="line"/>
    </contour>
  </outline>
</glyph>
<glyph name="nine" format="1">
  <advance width="536"/>
  <unicode hex="0039"/>
  <outline>
    <contour>
      <point x="139" y="0" type="line"/>
      <point x="349" y="85"/>
      <point x="526" y="299"/>
      <point x="526" y="520" type="curve" smooth="yes"/>
      <point x="526" y="620"/>
      <point x="476" y="694"/>
      <point x="356" y="694" type="curve" smooth="yes"/>
      <point x="241" y="694"/>
      <point x="96" y="571"/>
      <point x="96" y="392" type="curve" smooth="yes"/>
      <point x="96" y="254"/>
      <point x="231" y="249"/>
      <point x="248" y="249" type="curve" smooth="yes"/>
      <point x="312" y="249"/>
      <point x="381" y="277"/>
      <point x="438" y="307" type="curve"/>
      <point x="363" y="179"/>
      <point x="251" y="78"/>
      <point x="132" y="32" type="curve"/>
    </contour>
    <contour>
      <point x="462" y="364" type="curve"/>
      <point x="437" y="341"/>
      <point x="357" y="283"/>
      <point x="256" y="283" type="curve" smooth="yes"/>
      <point x="224" y="283"/>
      <point x="131" y="293"/>
      <point x="131" y="399" type="curve" smooth="yes"/>
      <point x="131" y="516"/>
      <point x="221" y="659"/>
      <point x="346" y="659" type="curve" smooth="yes"/>
      <point x="417" y="659"/>
      <point x="494" y="633"/>
      <point x="494" y="519" type="curve" smooth="yes"/>
      <point x="494" y="476"/>
      <point x="479" y="414"/>
    </contour>
  </outline>
</glyph>
<glyph name="colon" format="1">
  <advance width="240"/>
  <unicode hex="003A"/>
  <outline>
    <contour>
      <point x="204" y="442" type="line"/>
      <point x="148" y="433" type="line"/>
      <point x="128" y="369" type="line"/>
      <point x="185" y="377" type="line"/>
    </contour>
    <contour>
      <point x="98" y="74" type="line"/>
      <point x="42" y="66" type="line"/>
      <point x="22" y="1" type="line"/>
      <point x="77" y="9" type="line"/>
    </contour>
  </outline>
</glyph>
<glyph name="semicolon" format="1">
  <advance width="322"/>
  <unicode hex="003B"/>
  <outline>
    <contour>
      <point x="276" y="444" type="line"/>
      <point x="219" y="435" type="line"/>
      <point x="199" y="371" type="line"/>
      <point x="256" y="379" type="line"/>
    </contour>
    <contour>
      <point x="118" y="59" type="line"/>
      <point x="67" y="16" type="line"/>
      <point x="99" y="-6" type="line"/>
      <point x="22" y="-106" type="line"/>
      <point x="50" y="-125" type="line"/>
      <point x="170" y="28" type="line"/>
    </contour>
  </outline>
</glyph>
<glyph name="equal" format="1">
  <advance width="495"/>
  <unicode hex="003D"/>
  <outline>
    <contour>
      <point x="429" y="311" type="line"/>
      <point x="443" y="347" type="line"/>
      <point x="108" y="347" type="line"/>
      <point x="93" y="311" type="line"/>
    </contour>
    <contour>
      <point x="395" y="152" type="line"/>
      <point x="409" y="186" type="line"/>
      <point x="74" y="186" type="line"/>
      <point x="59" y="152" type="line"/>
    </contour>
  </outline>
</glyph>
<glyph name="question" format="1">
  <advance width="532"/>
  <unicode hex="003F"/>
  <outline>
    <contour>
      <point x="160" y="73" type="line"/>
      <point x="140" y="9" type="line"/>
      <point x="102" y="2" type="line"/>
      <point x="122" y="66" type="line"/>
    </contour>
    <contour>
      <point x="163" y="201" type="line"/>
      <point x="349" y="341" type="line" smooth="yes"/>
      <point x="414" y="390"/>
      <point x="498" y="455"/>
      <point x="498" y="557" type="curve" smooth="yes"/>
      <point x="498" y="625"/>
      <point x="458" y="686"/>
      <point x="344" y="686" type="curve" smooth="yes"/>
      <point x="255" y="686"/>
      <point x="186" y="621"/>
      <point x="160" y="592" type="curve"/>
      <point x="140" y="616" type="line"/>
      <point x="174" y="652"/>
      <point x="252" y="722"/>
      <point x="352" y="722" type="curve" smooth="yes"/>
      <point x="465" y="722"/>
      <point x="534" y="659"/>
      <point x="534" y="564" type="curve" smooth="yes"/>
      <point x="534" y="438"/>
      <point x="431" y="362"/>
      <point x="363" y="311" type="curve" smooth="yes"/>
      <point x="174" y="170" type="line"/>
    </contour>
  </outline>
</glyph>
<glyph name="at" format="1">
  <advance width="818"/>
  <unicode hex="0040"/>
  <outline>
    <contour>
      <point x="357" y="-65" type="curve" smooth="yes"/>
      <point x="458" y="-65"/>
      <point x="540" y="-23"/>
      <point x="579" y="2" type="curve"/>
      <point x="611" y="-15" type="line"/>
      <point x="574" y="-40"/>
      <point x="474" y="-99"/>
      <point x="349" y="-99" type="curve" smooth="yes"/>
      <point x="178" y="-99"/>
      <point x="58" y="22"/>
      <point x="58" y="181" type="curve" smooth="yes"/>
      <point x="58" y="426"/>
      <point x="288" y="622"/>
      <point x="512" y="622" type="curve" smooth="yes"/>
      <point x="676" y="622"/>
      <point x="786" y="513"/>
      <point x="786" y="360" type="curve" smooth="yes"/>
      <point x="786" y="225"/>
      <point x="706" y="98"/>
      <point x="581" y="98" type="curve" smooth="yes"/>
      <point x="513" y="98"/>
      <point x="469" y="140"/>
      <point x="462" y="198" type="curve"/>
      <point x="419" y="153"/>
      <point x="365" y="112"/>
      <point x="318" y="112" type="curve" smooth="yes"/>
      <point x="264" y="112"/>
      <point x="231" y="143"/>
      <point x="231" y="199" type="curve" smooth="yes"/>
      <point x="231" y="309"/>
      <point x="335" y="425"/>
      <point x="442" y="425" type="curve" smooth="yes"/>
      <point x="473" y="425"/>
      <point x="502" y="418"/>
      <point x="527" y="397" type="curve"/>
      <point x="499" y="369" type="line"/>
      <point x="478" y="383"/>
      <point x="459" y="391"/>
      <point x="435" y="391" type="curve" smooth="yes"/>
      <point x="351" y="391"/>
      <point x="267" y="293"/>
      <point x="267" y="208" type="curve" smooth="yes"/>
      <point x="267" y="167"/>
      <point x="292" y="147"/>
      <point x="326" y="147" type="curve" smooth="yes"/>
      <point x="386" y="147"/>
      <point x="454" y="235"/>
      <point x="482" y="276" type="curve"/>
      <point x="513" y="265" type="line"/>
      <point x="504" y="246"/>
      <point x="499" y="225"/>
      <point x="499" y="207" type="curve" smooth="yes"/>
      <point x="499" y="164"/>
      <point x="536" y="133"/>
      <point x="591" y="133" type="curve" smooth="yes"/>
      <point x="693" y="133"/>
      <point x="749" y="241"/>
      <point x="749" y="354" type="curve" smooth="yes"/>
      <point x="749" y="477"/>
      <point x="673" y="586"/>
      <point x="504" y="586" type="curve" smooth="yes"/>
      <point x="294" y="586"/>
      <point x="94" y="404"/>
      <point x="94" y="185" type="curve" smooth="yes"/>
      <point x="94" y="21"/>
      <point x="236" y="-65"/>
    </contour>
  </outline>
</glyph>
<glyph name="B" format="1">
  <advance width="592"/>
  <unicode hex="0042"/>
  <outline>
    <contour>
      <point x="369" y="364" type="curve"/>
      <point x="465" y="364"/>
      <point x="539" y="313"/>
      <point x="539" y="231" type="curve" smooth="yes"/>
      <point x="539" y="24"/>
      <point x="198" y="0"/>
      <point x="71" y="0" type="curve" smooth="yes"/>
      <point x="13" y="0" type="line"/>
      <point x="157" y="681" type="line"/>
      <point x="364" y="681" type="line" smooth="yes"/>
      <point x="480" y="681"/>
      <point x="544" y="631"/>
      <point x="544" y="548" type="curve" smooth="yes"/>
      <point x="544" y="486"/>
      <point x="518" y="393"/>
    </contour>
    <contour>
      <point x="120" y="342" type="line"/>
      <point x="55" y="35" type="line"/>
      <point x="68" y="34"/>
      <point x="70" y="34"/>
      <point x="79" y="34" type="curve" smooth="yes"/>
      <point x="203" y="34"/>
      <point x="504" y="64"/>
      <point x="504" y="228" type="curve" smooth="yes"/>
      <point x="504" y="323"/>
      <point x="391" y="342"/>
      <point x="320" y="342" type="curve" smooth="yes"/>
    </contour>
    <contour>
      <point x="185" y="646" type="line"/>
      <point x="127" y="376" type="line"/>
      <point x="281" y="376" type="line" smooth="yes"/>
      <point x="372" y="376"/>
      <point x="509" y="409"/>
      <point x="509" y="543" type="curve" smooth="yes"/>
      <point x="509" y="596"/>
      <point x="477" y="646"/>
      <point x="357" y="646" type="curve" smooth="yes"/>
    </contour>
  </outline>
</glyph>
<glyph name="C" format="1">
  <advance width="621"/>
  <unicode hex="0043"/>
  <outline>
    <contour>
      <point x="278" y="-1" type="curve" smooth="yes"/>
      <point x="145" y="-1"/>
      <point x="52" y="93"/>
      <point x="52" y="226" type="curve" smooth="yes"/>
      <point x="52" y="381"/>
      <point x="230" y="681"/>
      <point x="436" y="681" type="curve" smooth="yes"/>
      <point x="490" y="681"/>
      <point x="543" y="661"/>
      <point x="585" y="623" type="curve"/>
      <point x="592" y="657" type="line"/>
      <point x="619" y="657" type="line"/>
      <point x="597" y="555" type="line"/>
      <point x="570" y="555" type="line"/>
      <point x="575" y="575" type="line"/>
      <point x="553" y="609"/>
      <point x="510" y="647"/>
      <point x="423" y="647" type="curve" smooth="yes"/>
      <point x="253" y="647"/>
      <point x="87" y="367"/>
      <point x="87" y="235" type="curve" smooth="yes"/>
      <point x="87" y="120"/>
      <point x="167" y="33"/>
      <point x="286" y="33" type="curve" smooth="yes"/>
      <point x="385" y="33"/>
      <point x="467" y="70"/>
      <point x="528" y="147" type="curve"/>
      <point x="546" y="124" type="line"/>
      <point x="479" y="45"/>
      <point x="379" y="-1"/>
    </contour>
  </outline>
</glyph>
<glyph name="H" format="1">
  <advance width="673"/>
  <unicode hex="0048"/>
  <outline>
    <contour>
      <point x="666" y="672" type="line"/>
      <point x="608" y="399" type="line"/>
      <point x="119" y="333" type="line"/>
      <point x="193" y="679" type="line"/>
      <point x="154" y="672" type="line"/>
      <point x="12" y="3" type="line"/>
      <point x="52" y="18" type="line"/>
      <point x="111" y="295" type="line"/>
      <point x="600" y="361" type="line"/>
      <point x="524" y="3" type="line"/>
      <point x="564" y="18" type="line"/>
      <point x="705" y="679" type="line"/>
    </contour>
  </outline>
</glyph>
<glyph name="J" format="1">
  <advance width="459"/>
  <unicode hex="004A"/>
  <outline>
    <contour>
      <point x="284" y="679" type="line"/>
      <point x="276" y="641" type="line"/>
      <point x="435" y="641" type="line"/>
      <point x="332" y="157" type="line" smooth="yes"/>
      <point x="316" y="84"/>
      <point x="254" y="33"/>
      <point x="174" y="33" type="curve" smooth="yes"/>
      <point x="106" y="33"/>
      <point x="65" y="73"/>
      <point x="65" y="130" type="curve" smooth="yes"/>
      <point x="65" y="138"/>
      <point x="66" y="147"/>
      <point x="68" y="157" type="curve" smooth="yes"/>
      <point x="75" y="191" type="line"/>
      <point x="36" y="183" type="line"/>
      <point x="31" y="157" type="line" smooth="yes"/>
      <point x="28" y="145"/>
      <point x="27" y="134"/>
      <point x="27" y="123" type="curve" smooth="yes"/>
      <point x="27" y="51"/>
      <point x="81" y="1"/>
      <point x="167" y="1" type="curve" smooth="yes"/>
      <point x="267" y="1"/>
      <point x="349" y="65"/>
      <point x="369" y="157" type="curve" smooth="yes"/>
      <point x="472" y="641" type="line"/>
      <point x="525" y="641" type="line"/>
      <point x="533" y="679" type="line"/>
    </contour>
  </outline>
</glyph>
<glyph name="L" format="1">
  <advance width="477"/>
  <unicode hex="004C"/>
  <outline>
    <contour>
      <point x="13" y="1" type="line"/>
      <point x="155" y="669" type="line"/>
      <point x="193" y="676" type="line"/>
      <point x="58" y="40" type="line"/>
      <point x="416" y="66" type="line"/>
      <point x="412" y="30" type="line"/>
    </contour>
  </outline>
</glyph>
<glyph name="M" format="1">
  <advance width="855"/>
  <unicode hex="004D"/>
  <outline>
    <contour>
      <point x="723" y="622" type="line"/>
      <point x="396" y="9" type="line"/>
      <point x="333" y="1" type="line"/>
      <point x="289" y="607" type="line"/>
      <point x="34" y="9" type="line"/>
      <point x="-3" y="2" type="line"/>
      <point x="280" y="672" type="line"/>
      <point x="320" y="679" type="line"/>
      <point x="367" y="20" type="line"/>
      <point x="714" y="672" type="line"/>
      <point x="758" y="680" type="line"/>
      <point x="762" y="9" type="line"/>
      <point x="723" y="1" type="line"/>
    </contour>
  </outline>
</glyph>
<glyph name="P" format="1">
  <advance width="535"/>
  <unicode hex="0050"/>
  <outline>
    <contour>
      <point x="101" y="245" type="line"/>
      <point x="295" y="251"/>
      <point x="561" y="323"/>
      <point x="561" y="517" type="curve" smooth="yes"/>
      <point x="561" y="655"/>
      <point x="389" y="679"/>
      <point x="262" y="679" type="curve" smooth="yes"/>
      <point x="227" y="679"/>
      <point x="180" y="677"/>
      <point x="156" y="675" type="curve"/>
      <point x="13" y="2" type="line"/>
      <point x="50" y="9" type="line"/>
    </contour>
    <contour>
      <point x="185" y="642" type="line"/>
      <point x="243" y="642" type="line" smooth="yes"/>
      <point x="458" y="642"/>
      <point x="523" y="584"/>
      <point x="523" y="507" type="curve" smooth="yes"/>
      <point x="523" y="388"/>
      <point x="373" y="292"/>
      <point x="108" y="281" type="curve"/>
    </contour>
  </outline>
</glyph>
<glyph name="Q" format="1">
  <advance width="711"/>
  <unicode hex="0051"/>
  <outline>
    <contour>
      <point x="500" y="83" type="line"/>
      <point x="612" y="174"/>
      <point x="692" y="306"/>
      <point x="692" y="440" type="curve" smooth="yes"/>
      <point x="692" y="576"/>
      <point x="606" y="679"/>
      <point x="468" y="679" type="curve" smooth="yes"/>
      <point x="274" y="679"/>
      <point x="55" y="472"/>
      <point x="55" y="240" type="curve" smooth="yes"/>
      <point x="55" y="103"/>
      <point x="140" y="-1"/>
      <point x="277" y="-1" type="curve" smooth="yes"/>
      <point x="337" y="-1"/>
      <point x="404" y="22"/>
      <point x="467" y="61" type="curve"/>
      <point x="589" y="-33" type="line"/>
      <point x="611" y="-1" type="line"/>
    </contour>
    <contour>
      <point x="381" y="177" type="line"/>
      <point x="344" y="158" type="line"/>
      <point x="444" y="84" type="line"/>
      <point x="390" y="53"/>
      <point x="333" y="33"/>
      <point x="285" y="33" type="curve" smooth="yes"/>
      <point x="169" y="33"/>
      <point x="97" y="121"/>
      <point x="97" y="242" type="curve" smooth="yes"/>
      <point x="97" y="454"/>
      <point x="293" y="644"/>
      <point x="458" y="644" type="curve" smooth="yes"/>
      <point x="579" y="644"/>
      <point x="648" y="544"/>
      <point x="648" y="427" type="curve" smooth="yes"/>
      <point x="648" y="308"/>
      <point x="576" y="184"/>
      <point x="476" y="107" type="curve"/>
    </contour>
  </outline>
</glyph>
<glyph name="R" format="1">
  <advance width="584"/>
  <unicode hex="0052"/>
  <outline>
    <contour>
      <point x="187" y="649" type="line"/>
      <point x="240" y="649" type="line" smooth="yes"/>
      <point x="463" y="649"/>
      <point x="532" y="589"/>
      <point x="532" y="510" type="curve" smooth="yes"/>
      <point x="532" y="389"/>
      <point x="356" y="292"/>
      <point x="110" y="283" type="curve"/>
    </contour>
    <contour>
      <point x="100" y="242" type="line"/>
      <point x="143" y="250"/>
      <point x="195" y="257"/>
      <point x="220" y="257" type="curve" smooth="yes"/>
      <point x="243" y="257"/>
      <point x="272" y="253"/>
      <point x="287" y="244" type="curve" smooth="yes"/>
      <point x="332" y="218"/>
      <point x="408" y="156"/>
      <point x="456" y="6" type="curve"/>
      <point x="488" y="31" type="line"/>
      <point x="443" y="162"/>
      <point x="371" y="238"/>
      <point x="314" y="278" type="curve"/>
      <point x="478" y="326"/>
      <point x="569" y="423"/>
      <point x="569" y="521" type="curve" smooth="yes"/>
      <point x="569" y="663"/>
      <point x="391" y="687"/>
      <point x="261" y="687" type="curve" smooth="yes"/>
      <point x="226" y="687"/>
      <point x="180" y="685"/>
      <point x="158" y="683" type="curve"/>
      <point x="13" y="2" type="line"/>
      <point x="50" y="9" type="line"/>
    </contour>
  </outline>
</glyph>
<glyph name="U" format="1">
  <advance width="674"/>
  <unicode hex="0055"/>
  <outline>
    <contour>
      <point x="287" y="0" type="curve" smooth="yes"/>
      <point x="130" y="0"/>
      <point x="79" y="88"/>
      <point x="79" y="225" type="curve" smooth="yes"/>
      <point x="79" y="346"/>
      <point x="130" y="565"/>
      <point x="157" y="671" type="curve"/>
      <point x="196" y="678" type="line"/>
      <point x="179" y="613"/>
      <point x="116" y="363"/>
      <point x="116" y="230" type="curve" smooth="yes"/>
      <point x="116" y="113"/>
      <point x="157" y="30"/>
      <point x="293" y="30" type="curve" smooth="yes"/>
      <point x="513" y="30"/>
      <point x="577" y="253"/>
      <point x="616" y="434" type="curve" smooth="yes"/>
      <point x="633" y="513"/>
      <point x="655" y="624"/>
      <point x="664" y="670" type="curve"/>
      <point x="704" y="678" type="line"/>
      <point x="699" y="653"/>
      <point x="679" y="556"/>
      <point x="663" y="480" type="curve" smooth="yes"/>
      <point x="613" y="247"/>
      <point x="542" y="0"/>
    </contour>
  </outline>
</glyph>
<glyph name="V" format="1">
  <advance width="530"/>
  <unicode hex="0056"/>
  <outline>
    <contour>
      <point x="205" y="46" type="line"/>
      <point x="577" y="677" type="line"/>
      <point x="610" y="663" type="line"/>
      <point x="224" y="10" type="line"/>
      <point x="172" y="1" type="line"/>
      <point x="100" y="662" type="line"/>
      <point x="137" y="677" type="line"/>
    </contour>
  </outline>
</glyph>
<glyph name="X" format="1">
  <advance width="670"/>
  <unicode hex="0058"/>
  <outline>
    <contour>
      <point x="385" y="344" type="line"/>
      <point x="571" y="29" type="line"/>
      <point x="538" y="5" type="line"/>
      <point x="355" y="316" type="line"/>
      <point x="28" y="5" type="line"/>
      <point x="6" y="31" type="line"/>
      <point x="338" y="345" type="line"/>
      <point x="158" y="652" type="line"/>
      <point x="192" y="676" type="line"/>
      <point x="368" y="374" type="line"/>
      <point x="687" y="676" type="line"/>
      <point x="709" y="650" type="line"/>
    </contour>
  </outline>
</glyph>
<glyph name="Y" format="1">
  <advance width="618"/>
  <unicode hex="0059"/>
  <outline>
    <contour>
      <point x="318" y="243" type="line"/>
      <point x="667" y="677" type="line"/>
      <point x="707" y="677" type="line"/>
      <point x="162" y="0" type="line"/>
      <point x="123" y="0" type="line"/>
      <point x="290" y="210" type="line"/>
      <point x="117" y="677" type="line"/>
      <point x="156" y="677" type="line"/>
    </contour>
  </outline>
</glyph>
<glyph name="bracketleft" format="1">
  <advance width="305"/>
  <unicode hex="005B"/>
  <outline>
    <contour>
      <point x="143" y="-129" type="line"/>
      <point x="158" y="-94" type="line"/>
      <point x="31" y="-94" type="line"/>
      <point x="217" y="782" type="line"/>
      <point x="353" y="782" type="line"/>
      <point x="367" y="818" type="line"/>
      <point x="189" y="818" type="line"/>
      <point x="-12" y="-129" type="line"/>
    </contour>
  </outline>
</glyph>
<glyph name="backslash" format="1">
  <advance width="482"/>
  <unicode hex="005C"/>
  <outline>
    <contour>
      <point x="168" y="701" type="line"/>
      <point x="129" y="701" type="line"/>
      <point x="364" y="0" type="line"/>
      <point x="404" y="0" type="line"/>
    </contour>
  </outline>
</glyph>
<glyph name="bracketright" format="1">
  <advance width="305"/>
  <unicode hex="005D"/>
  <outline>
    <contour>
      <point x="210" y="818" type="line"/>
      <point x="194" y="782" type="line"/>
      <point x="321" y="782" type="line"/>
      <point x="135" y="-94" type="line"/>
      <point x="0" y="-94" type="line"/>
      <point x="-15" y="-129" type="line"/>
      <point x="163" y="-129" type="line"/>
      <point x="364" y="818" type="line"/>
    </contour>
  </outline>
</glyph>
<glyph name="asciicircum" format="1">
  <advance width="490"/>
  <unicode hex="005E"/>
  <outline>
    <contour>
      <point x="245" y="751" type="line"/>
      <point x="381" y="843" type="line"/>
      <point x="462" y="753" type="line"/>
      <point x="490" y="779" type="line"/>
      <point x="396" y="894" type="line"/>
      <point x="229" y="779" type="line"/>
    </contour>
  </outline>
</glyph>
<glyph name="grave" format="1">
  <advance width="490"/>
  <unicode hex="0060"/>
  <outline>
    <contour>
      <point x="440" y="778" type="line"/>
      <point x="352" y="913" type="line"/>
      <point x="304" y="888" type="line"/>
      <point x="406" y="758" type="line"/>
    </contour>
  </outline>
</glyph>
<glyph name="b" format="1">
  <advance width="518"/>
  <unicode hex="0062"/>
  <outline>
    <contour>
      <point x="354" y="490" type="curve" smooth="yes"/>
      <point x="267" y="490"/>
      <point x="182" y="445"/>
      <point x="131" y="382" type="curve"/>
      <point x="198" y="698" type="line"/>
      <point x="158" y="689" type="line"/>
      <point x="13" y="9" type="line"/>
      <point x="50" y="2" type="line"/>
      <point x="57" y="35" type="line"/>
      <point x="93" y="20"/>
      <point x="151" y="1"/>
      <point x="204" y="1" type="curve" smooth="yes"/>
      <point x="389" y="1"/>
      <point x="487" y="190"/>
      <point x="487" y="340" type="curve" smooth="yes"/>
      <point x="487" y="419"/>
      <point x="455" y="490"/>
    </contour>
    <contour>
      <point x="203" y="36" type="curve" smooth="yes"/>
      <point x="141" y="36"/>
      <point x="84" y="58"/>
      <point x="64" y="69" type="curve"/>
      <point x="112" y="293" type="line" smooth="yes"/>
      <point x="131" y="381"/>
      <point x="237" y="452"/>
      <point x="350" y="452" type="curve" smooth="yes"/>
      <point x="429" y="452"/>
      <point x="450" y="388"/>
      <point x="450" y="327" type="curve" smooth="yes"/>
      <point x="450" y="182"/>
      <point x="353" y="36"/>
    </contour>
  </outline>
</glyph>
<glyph name="f" format="1">
  <advance width="322"/>
  <unicode hex="0066"/>
  <outline>
    <contour>
      <point x="407" y="702" type="line"/>
      <point x="389" y="702" type="line" smooth="yes"/>
      <point x="257" y="702"/>
      <point x="183" y="649"/>
      <point x="152" y="502" type="curve"/>
      <point x="72" y="502" type="line"/>
      <point x="59" y="470" type="line"/>
      <point x="145" y="470" type="line"/>
      <point x="46" y="2" type="line"/>
      <point x="85" y="9" type="line"/>
      <point x="183" y="470" type="line"/>
      <point x="314" y="470" type="line"/>
      <point x="328" y="502" type="line"/>
      <point x="195" y="502" type="line"/>
      <point x="220" y="622"/>
      <point x="257" y="667"/>
      <point x="382" y="667" type="curve"/>
    </contour>
  </outline>
</glyph>
<glyph name="k" format="1">
  <advance width="484"/>
  <unicode hex="006B"/>
  <outline>
    <contour>
      <point x="251" y="303" type="curve"/>
      <point x="302" y="338"/>
      <point x="433" y="449"/>
      <point x="495" y="510" type="curve"/>
      <point x="469" y="531" type="line"/>
      <point x="365" y="425"/>
      <point x="189" y="285"/>
      <point x="104" y="245" type="curve"/>
      <point x="199" y="698" type="line"/>
      <point x="159" y="689" type="line"/>
      <point x="15" y="2" type="line"/>
      <point x="54" y="9" type="line"/>
      <point x="95" y="205" type="line"/>
      <point x="126" y="221"/>
      <point x="167" y="247"/>
      <point x="218" y="280" type="curve"/>
      <point x="257" y="227"/>
      <point x="327" y="115"/>
      <point x="376" y="5" type="curve"/>
      <point x="409" y="30" type="line"/>
      <point x="333" y="167"/>
      <point x="257" y="294"/>
    </contour>
  </outline>
</glyph>
<glyph name="l" format="1">
  <advance width="216"/>
  <unicode hex="006C"/>
  <outline>
    <contour>
      <point x="182" y="689" type="line"/>
      <point x="222" y="698" type="line"/>
      <point x="75" y="9" type="line"/>
      <point x="36" y="2" type="line"/>
    </contour>
  </outline>
</glyph>
<glyph name="p" format="1">
  <advance width="508"/>
  <unicode hex="0070"/>
  <outline>
    <contour>
      <point x="361" y="496" type="curve"/>
      <point x="444" y="494"/>
      <point x="476" y="422"/>
      <point x="476" y="342" type="curve" smooth="yes"/>
      <point x="476" y="192"/>
      <point x="380" y="7"/>
      <point x="201" y="7" type="curve" smooth="yes"/>
      <point x="149" y="7"/>
      <point x="94" y="26"/>
      <point x="58" y="42" type="curve"/>
      <point x="9" y="-192" type="line"/>
      <point x="-30" y="-199" type="line"/>
      <point x="116" y="488" type="line"/>
      <point x="155" y="497" type="line"/>
      <point x="137" y="412" type="line"/>
      <point x="198" y="458"/>
      <point x="273" y="496"/>
    </contour>
    <contour>
      <point x="209" y="41" type="curve" smooth="yes"/>
      <point x="359" y="41"/>
      <point x="441" y="192"/>
      <point x="441" y="338" type="curve" smooth="yes"/>
      <point x="441" y="400"/>
      <point x="419" y="460"/>
      <point x="342" y="460" type="curve" smooth="yes"/>
      <point x="230" y="460"/>
      <point x="152" y="392"/>
      <point x="127" y="364" type="curve"/>
      <point x="67" y="80" type="line"/>
      <point x="86" y="70"/>
      <point x="146" y="41"/>
    </contour>
  </outline>
</glyph>
<glyph name="t" format="1">
  <advance width="363"/>
  <unicode hex="0074"/>
  <outline>
    <contour>
      <point x="399" y="502" type="line"/>
      <point x="391" y="465" type="line"/>
      <point x="248" y="465" type="line"/>
      <point x="151" y="9" type="line"/>
      <point x="111" y="2" type="line"/>
      <point x="209" y="465" type="line"/>
      <point x="65" y="465" type="line"/>
      <point x="73" y="502" type="line"/>
      <point x="217" y="502" type="line"/>
      <point x="253" y="669" type="line"/>
      <point x="293" y="676" type="line"/>
      <point x="256" y="502" type="line"/>
    </contour>
  </outline>
</glyph>
<glyph name="u" format="1">
  <advance width="506"/>
  <unicode hex="0075"/>
  <outline>
    <contour>
      <point x="110" y="291" type="curve"/>
      <point x="98" y="231"/>
      <point x="84" y="171"/>
      <point x="84" y="123" type="curve" smooth="yes"/>
      <point x="84" y="66"/>
      <point x="104" y="26"/>
      <point x="168" y="26" type="curve" smooth="yes"/>
      <point x="244" y="26"/>
      <point x="336" y="97"/>
      <point x="365" y="123" type="curve" smooth="yes"/>
      <point x="375" y="132"/>
      <point x="385" y="149"/>
      <point x="391" y="175" type="curve" smooth="yes"/>
      <point x="460" y="495" type="line"/>
      <point x="500" y="502" type="line"/>
      <point x="395" y="9" type="line"/>
      <point x="350" y="2" type="line"/>
      <point x="369" y="90" type="line"/>
      <point x="321" y="47"/>
      <point x="235" y="-6"/>
      <point x="160" y="-6" type="curve" smooth="yes"/>
      <point x="74" y="-6"/>
      <point x="49" y="45"/>
      <point x="49" y="116" type="curve" smooth="yes"/>
      <point x="49" y="168"/>
      <point x="62" y="230"/>
      <point x="75" y="291" type="curve" smooth="yes"/>
      <point x="84" y="335"/>
      <point x="108" y="425"/>
      <point x="134" y="495" type="curve"/>
      <point x="171" y="502" type="line"/>
      <point x="158" y="465"/>
      <point x="127" y="368"/>
    </contour>
  </outline>
</glyph>
<glyph name="w" format="1">
  <advance width="643"/>
  <unicode hex="0077"/>
  <outline>
    <contour>
      <point x="413" y="40" type="line"/>
      <point x="640" y="485" type="line"/>
      <point x="682" y="494" type="line"/>
      <point x="428" y="11" type="line"/>
      <point x="381" y="2" type="line"/>
      <point x="370" y="430" type="line"/>
      <point x="134" y="11" type="line"/>
      <point x="85" y="2" type="line"/>
      <point x="90" y="486" type="line"/>
      <point x="128" y="495" type="line"/>
      <point x="121" y="43" type="line"/>
      <point x="362" y="485" type="line"/>
      <point x="406" y="494" type="line"/>
    </contour>
  </outline>
</glyph>
<glyph name="y" format="1">
  <advance width="490"/>
  <unicode hex="0079"/>
  <outline>
    <contour>
      <point x="492" y="497" type="line"/>
      <point x="221" y="98" type="line"/>
      <point x="109" y="496" type="line"/>
      <point x="70" y="479" type="line"/>
      <point x="193" y="53" type="line"/>
      <point x="30" y="-185" type="line"/>
      <point x="62" y="-202" type="line"/>
      <point x="523" y="480" type="line"/>
    </contour>
  </outline>
</glyph>
<glyph name="braceleft" format="1">
  <advance width="364"/>
  <unicode hex="007B"/>
  <outline>
    <contour>
      <point x="85" y="337" type="curve"/>
      <point x="92" y="371" type="line"/>
      <point x="143" y="389"/>
      <point x="181" y="428"/>
      <point x="193" y="482" type="curve" smooth="yes"/>
      <point x="235" y="679" type="line" smooth="yes"/>
      <point x="257" y="781"/>
      <point x="362" y="818"/>
      <point x="425" y="823" type="curve"/>
      <point x="416" y="787" type="line"/>
      <point x="344" y="782"/>
      <point x="285" y="743"/>
      <point x="271" y="679" type="curve" smooth="yes"/>
      <point x="229" y="483" type="line" smooth="yes"/>
      <point x="222" y="452"/>
      <point x="202" y="400"/>
      <point x="134" y="354" type="curve"/>
      <point x="159" y="331"/>
      <point x="177" y="298"/>
      <point x="177" y="257" type="curve" smooth="yes"/>
      <point x="177" y="247"/>
      <point x="176" y="236"/>
      <point x="174" y="225" type="curve" smooth="yes"/>
      <point x="129" y="14" type="line" smooth="yes"/>
      <point x="127" y="6"/>
      <point x="126" y="-2"/>
      <point x="126" y="-9" type="curve" smooth="yes"/>
      <point x="126" y="-55"/>
      <point x="160" y="-85"/>
      <point x="232" y="-94" type="curve"/>
      <point x="222" y="-130" type="line"/>
      <point x="168" y="-127"/>
      <point x="90" y="-99"/>
      <point x="90" y="-17" type="curve" smooth="yes"/>
      <point x="90" y="-7"/>
      <point x="91" y="3"/>
      <point x="93" y="14" type="curve" smooth="yes"/>
      <point x="140" y="233" type="line" smooth="yes"/>
      <point x="141" y="240"/>
      <point x="142" y="247"/>
      <point x="142" y="254" type="curve" smooth="yes"/>
      <point x="142" y="292"/>
      <point x="120" y="324"/>
    </contour>
  </outline>
</glyph>
<glyph name="bar" format="1">
  <advance width="245"/>
  <unicode hex="007C"/>
  <outline>
    <contour>
      <point x="74" y="-65" type="line"/>
      <point x="250" y="763" type="line"/>
      <point x="213" y="756" type="line"/>
      <point x="37" y="-72" type="line"/>
    </contour>
  </outline>
</glyph>
<glyph name="asciitilde" format="1">
  <advance width="635"/>
  <unicode hex="007E"/>
  <outline>
    <contour>
      <point x="557" y="321" type="line"/>
      <point x="519" y="250"/>
      <point x="457" y="192"/>
      <point x="411" y="192" type="curve" smooth="yes"/>
      <point x="372" y="192"/>
      <point x="353" y="227"/>
      <point x="333" y="263" type="curve" smooth="yes"/>
      <point x="311" y="303"/>
      <point x="287" y="346"/>
      <point x="230" y="346" type="curve" smooth="yes"/>
      <point x="153" y="346"/>
      <point x="90" y="274"/>
      <point x="58" y="211" type="curve"/>
      <point x="86" y="197" type="line"/>
      <point x="103" y="230"/>
      <point x="151" y="310"/>
      <point x="222" y="310" type="curve" smooth="yes"/>
      <point x="264" y="310"/>
      <point x="283" y="273"/>
      <point x="303" y="235" type="curve" smooth="yes"/>
      <point x="324" y="196"/>
      <point x="348" y="156"/>
      <point x="404" y="156" type="curve" smooth="yes"/>
      <point x="495" y="156"/>
      <point x="562" y="261"/>
      <point x="586" y="305" type="curve"/>
    </contour>
  </outline>
</glyph>
<glyph name="exclamdown" format="1">
  <advance width="175"/>
  <unicode hex="00A1"/>
  <outline>
    <contour>
      <point x="78" y="335" type="line"/>
      <point x="-36" y="-198" type="line"/>
      <point x="1" y="-191" type="line"/>
      <point x="115" y="344" type="line"/>
    </contour>
    <contour>
      <point x="96" y="427" type="line"/>
      <point x="134" y="434" type="line"/>
      <point x="154" y="498" type="line"/>
      <point x="116" y="491" type="line"/>
    </contour>
  </outline>
</glyph>
<glyph name="cent" format="1">
  <advance width="496"/>
  <unicode hex="00A2"/>
  <outline>
    <contour>
      <point x="233" y="101" type="line"/>
      <point x="318" y="104"/>
      <point x="387" y="136"/>
      <point x="436" y="191" type="curve"/>
      <point x="416" y="216" type="line"/>
      <point x="375" y="170"/>
      <point x="308" y="134"/>
      <point x="241" y="134" type="curve"/>
      <point x="344" y="571" type="line"/>
      <point x="393" y="571"/>
      <point x="429" y="546"/>
      <point x="447" y="513" type="curve"/>
      <point x="479" y="539" type="line"/>
      <point x="455" y="578"/>
      <point x="412" y="603"/>
      <point x="353" y="603" type="curve"/>
      <point x="373" y="691" type="line"/>
      <point x="339" y="681" type="line"/>
      <point x="320" y="601" type="line"/>
      <point x="171" y="558"/>
      <point x="60" y="391"/>
      <point x="60" y="272" type="curve" smooth="yes"/>
      <point x="60" y="193"/>
      <point x="107" y="124"/>
      <point x="202" y="103" type="curve"/>
      <point x="179" y="4" type="line"/>
      <point x="213" y="15" type="line"/>
    </contour>
    <contour>
      <point x="210" y="136" type="line"/>
      <point x="132" y="155"/>
      <point x="96" y="214"/>
      <point x="96" y="278" type="curve" smooth="yes"/>
      <point x="96" y="333"/>
      <point x="150" y="511"/>
      <point x="312" y="568" type="curve"/>
    </contour>
  </outline>
</glyph>
<glyph name="ordfeminine" format="1">
  <advance width="240"/>
  <unicode hex="00AA"/>
  <outline>
    <contour>
      <point x="325" y="661" type="line"/>
      <point x="299" y="677"/>
      <point x="261" y="684"/>
      <point x="239" y="684" type="curve" smooth="yes"/>
      <point x="144" y="684"/>
      <point x="51" y="577"/>
      <point x="51" y="470" type="curve" smooth="yes"/>
      <point x="51" y="413"/>
      <point x="86" y="373"/>
      <point x="142" y="373" type="curve" smooth="yes"/>
      <point x="165" y="373"/>
      <point x="198" y="382"/>
      <point x="240" y="403" type="curve"/>
      <point x="233" y="369" type="line"/>
      <point x="265" y="376" type="line"/>
    </contour>
    <contour>
      <point x="247" y="441" type="line"/>
      <point x="228" y="428"/>
      <point x="182" y="403"/>
      <point x="146" y="403" type="curve" smooth="yes"/>
      <point x="106" y="403"/>
      <point x="82" y="430"/>
      <point x="82" y="474" type="curve" smooth="yes"/>
      <point x="82" y="554"/>
      <point x="150" y="654"/>
      <point x="233" y="654" type="curve" smooth="yes"/>
      <point x="252" y="654"/>
      <point x="276" y="649"/>
      <point x="292" y="639" type="curve"/>
    </contour>
  </outline>
</glyph>
<glyph name="guillemotleft" format="1">
  <advance width="599"/>
  <unicode hex="00AB"/>
  <outline>
    <contour>
      <point x="237" y="73" type="line"/>
      <point x="77" y="251" type="line"/>
      <point x="331" y="435" type="line"/>
      <point x="349" y="409" type="line"/>
      <point x="130" y="251" type="line"/>
      <point x="266" y="100" type="line"/>
    </contour>
    <contour>
      <point x="451" y="73" type="line"/>
      <point x="291" y="251" type="line"/>
      <point x="544" y="435" type="line"/>
      <point x="562" y="409" type="line"/>
      <point x="344" y="251" type="line"/>
      <point x="480" y="100" type="line"/>
    </contour>
  </outline>
</glyph>
<glyph name="logicalnot" format="1">
  <advance width="506"/>
  <unicode hex="00AC"/>
  <outline>
    <contour>
      <point x="382" y="123" type="line"/>
      <point x="417" y="134" type="line"/>
      <point x="455" y="308" type="line"/>
      <point x="93" y="308" type="line"/>
      <point x="79" y="276" type="line"/>
      <point x="415" y="276" type="line"/>
    </contour>
  </outline>
</glyph>
<glyph name="registered" format="1">
  <advance width="566"/>
  <unicode hex="00AE"/>
  <outline>
    <contour>
      <point x="286" y="246" type="curve" smooth="yes"/>
      <point x="422" y="246"/>
      <point x="560" y="375"/>
      <point x="560" y="519" type="curve" smooth="yes"/>
      <point x="560" y="621"/>
      <point x="488" y="698"/>
      <point x="382" y="698" type="curve" smooth="yes"/>
      <point x="244" y="698"/>
      <point x="108" y="568"/>
      <point x="108" y="423" type="curve" smooth="yes"/>
      <point x="108" y="322"/>
      <point x="180" y="246"/>
    </contour>
    <contour>
      <point x="376" y="671" type="curve" smooth="yes"/>
      <point x="469" y="671"/>
      <point x="532" y="604"/>
      <point x="532" y="514" type="curve" smooth="yes"/>
      <point x="532" y="384"/>
      <point x="410" y="273"/>
      <point x="292" y="273" type="curve" smooth="yes"/>
      <point x="199" y="273"/>
      <point x="135" y="339"/>
      <point x="135" y="429" type="curve" smooth="yes"/>
      <point x="135" y="557"/>
      <point x="256" y="671"/>
    </contour>
    <contour>
      <point x="321" y="462" type="line"/>
      <point x="389" y="476"/>
      <point x="457" y="497"/>
      <point x="457" y="543" type="curve" smooth="yes"/>
      <point x="457" y="575"/>
      <point x="424" y="594"/>
      <point x="361" y="594" type="curve" smooth="yes"/>
      <point x="294" y="594"/>
      <point x="290" y="584"/>
      <point x="285" y="573" type="curve"/>
      <point x="212" y="376" type="line"/>
      <point x="240" y="380" type="line"/>
      <point x="273" y="462" type="line"/>
      <point x="383" y="373" type="line"/>
      <point x="406" y="393" type="line"/>
    </contour>
    <contour>
      <point x="309" y="564" type="line"/>
      <point x="329" y="567"/>
      <point x="339" y="567"/>
      <point x="349" y="567" type="curve" smooth="yes"/>
      <point x="387" y="567"/>
      <point x="429" y="558"/>
      <point x="429" y="535" type="curve" smooth="yes"/>
      <point x="429" y="518"/>
      <point x="374" y="490"/>
      <point x="280" y="483" type="curve"/>
    </contour>
  </outline>
</glyph>
<glyph name="degree" format="1">
  <advance width="257"/>
  <unicode hex="00B0"/>
  <outline>
    <contour>
      <point x="186" y="521" type="curve" smooth="yes"/>
      <point x="266" y="521"/>
      <point x="344" y="594"/>
      <point x="344" y="677" type="curve" smooth="yes"/>
      <point x="344" y="734"/>
      <point x="302" y="777"/>
      <point x="241" y="777" type="curve" smooth="yes"/>
      <point x="163" y="777"/>
      <point x="82" y="705"/>
      <point x="82" y="622" type="curve" smooth="yes"/>
      <point x="82" y="564"/>
      <point x="124" y="521"/>
    </contour>
    <contour>
      <point x="233" y="739" type="curve" smooth="yes"/>
      <point x="275" y="739"/>
      <point x="305" y="708"/>
      <point x="305" y="668" type="curve" smooth="yes"/>
      <point x="305" y="611"/>
      <point x="249" y="558"/>
      <point x="194" y="558" type="curve" smooth="yes"/>
      <point x="151" y="558"/>
      <point x="120" y="590"/>
      <point x="120" y="631" type="curve" smooth="yes"/>
      <point x="120" y="688"/>
      <point x="179" y="739"/>
    </contour>
  </outline>
</glyph>
<glyph name="twosuperior" format="1">
  <advance width="227"/>
  <unicode hex="00B2"/>
  <outline>
    <contour>
      <point x="130" y="755" type="line"/>
      <point x="165" y="795"/>
      <point x="202" y="807"/>
      <point x="234" y="807" type="curve" smooth="yes"/>
      <point x="269" y="807"/>
      <point x="300" y="787"/>
      <point x="300" y="755" type="curve" smooth="yes"/>
      <point x="300" y="717"/>
      <point x="263" y="679"/>
      <point x="182" y="632" type="curve" smooth="yes"/>
      <point x="106" y="588"/>
      <point x="65" y="548"/>
      <point x="50" y="468" type="curve" smooth="yes"/>
      <point x="48" y="457" type="line"/>
      <point x="263" y="457" type="line"/>
      <point x="274" y="483" type="line"/>
      <point x="79" y="483" type="line"/>
      <point x="101" y="549"/>
      <point x="131" y="575"/>
      <point x="192" y="610" type="curve" smooth="yes"/>
      <point x="248" y="642"/>
      <point x="327" y="698"/>
      <point x="327" y="761" type="curve" smooth="yes"/>
      <point x="327" y="794"/>
      <point x="308" y="834"/>
      <point x="240" y="834" type="curve" smooth="yes"/>
      <point x="194" y="834"/>
      <point x="144" y="806"/>
      <point x="114" y="776" type="curve"/>
    </contour>
  </outline>
</glyph>
<glyph name="threesuperior" format="1">
  <advance width="226"/>
  <unicode hex="00B3"/>
  <outline>
    <contour>
      <point x="146" y="774" type="curve"/>
      <point x="131" y="792" type="line"/>
      <point x="154" y="810"/>
      <point x="194" y="831"/>
      <point x="238" y="831" type="curve" smooth="yes"/>
      <point x="291" y="831"/>
      <point x="326" y="804"/>
      <point x="326" y="766" type="curve" smooth="yes"/>
      <point x="326" y="733"/>
      <point x="296" y="688"/>
      <point x="240" y="668" type="curve"/>
      <point x="277" y="655"/>
      <point x="295" y="624"/>
      <point x="295" y="590" type="curve" smooth="yes"/>
      <point x="295" y="491"/>
      <point x="199" y="456"/>
      <point x="157" y="456" type="curve" smooth="yes"/>
      <point x="119" y="456"/>
      <point x="70" y="471"/>
      <point x="62" y="529" type="curve"/>
      <point x="89" y="538" type="line"/>
      <point x="91" y="500"/>
      <point x="120" y="482"/>
      <point x="163" y="482" type="curve" smooth="yes"/>
      <point x="185" y="482"/>
      <point x="269" y="501"/>
      <point x="269" y="588" type="curve" smooth="yes"/>
      <point x="269" y="626"/>
      <point x="240" y="654"/>
      <point x="173" y="654" type="curve"/>
      <point x="178" y="679" type="line"/>
      <point x="218" y="680"/>
      <point x="298" y="699"/>
      <point x="298" y="762" type="curve" smooth="yes"/>
      <point x="298" y="790"/>
      <point x="266" y="805"/>
      <point x="231" y="805" type="curve" smooth="yes"/>
      <point x="205" y="805"/>
      <point x="177" y="799"/>
    </contour>
  </outline>
</glyph>
<glyph name="acute" format="1">
  <advance width="490"/>
  <unicode hex="00B4"/>
  <outline>
    <contour>
      <point x="238" y="617" type="line"/>
      <point x="401" y="730" type="line"/>
      <point x="432" y="698" type="line"/>
      <point x="258" y="593" type="line"/>
    </contour>
  </outline>
</glyph>
<glyph name="mu" format="1">
  <advance width="505"/>
  <unicode hex="00B5"/>
  <outline>
    <contour>
      <point x="75" y="294" type="curve" smooth="yes"/>
      <point x="47" y="160"/>
      <point x="16" y="-111"/>
      <point x="10" y="-172" type="curve"/>
      <point x="45" y="-179" type="line"/>
      <point x="73" y="53" type="line"/>
      <point x="84" y="1"/>
      <point x="149" y="-5"/>
      <point x="159" y="-5" type="curve" smooth="yes"/>
      <point x="237" y="-5"/>
      <point x="303" y="37"/>
      <point x="370" y="101" type="curve"/>
      <point x="349" y="3" type="line"/>
      <point x="395" y="10" type="line"/>
      <point x="499" y="503" type="line"/>
      <point x="458" y="496" type="line"/>
      <point x="392" y="186" type="line" smooth="yes"/>
      <point x="386" y="156"/>
      <point x="375" y="144"/>
      <point x="366" y="134" type="curve" smooth="yes"/>
      <point x="333" y="97"/>
      <point x="249" y="29"/>
      <point x="178" y="29" type="curve" smooth="yes"/>
      <point x="129" y="29"/>
      <point x="92" y="45"/>
      <point x="92" y="141" type="curve" smooth="yes"/>
      <point x="92" y="211"/>
      <point x="113" y="331"/>
      <point x="170" y="503" type="curve"/>
      <point x="133" y="496" type="line"/>
      <point x="120" y="458"/>
      <point x="92" y="372"/>
    </contour>
  </outline>
</glyph>
<glyph name="cedilla" format="1">
  <advance width="490"/>
  <unicode hex="00B8"/>
  <outline>
    <contour>
      <point x="169" y="20" type="line"/>
      <point x="160" y="15" type="line"/>
      <point x="121" y="-52" type="line"/>
      <point x="138" y="-72" type="line"/>
      <point x="147" y="-68"/>
      <point x="160" y="-64"/>
      <point x="171" y="-64" type="curve" smooth="yes"/>
      <point x="200" y="-64"/>
      <point x="220" y="-85"/>
      <point x="220" y="-112" type="curve" smooth="yes"/>
      <point x="220" y="-152"/>
      <point x="183" y="-186"/>
      <point x="145" y="-186" type="curve" smooth="yes"/>
      <point x="124" y="-186"/>
      <point x="113" y="-177"/>
      <point x="104" y="-168" type="curve"/>
      <point x="83" y="-184" type="line"/>
      <point x="96" y="-200"/>
      <point x="116" y="-209"/>
      <point x="140" y="-209" type="curve" smooth="yes"/>
      <point x="193" y="-209"/>
      <point x="244" y="-161"/>
      <point x="244" y="-106" type="curve" smooth="yes"/>
      <point x="244" y="-66"/>
      <point x="214" y="-41"/>
      <point x="168" y="-41" type="curve" smooth="yes"/>
      <point x="154" y="-41" type="line"/>
    </contour>
  </outline>
</glyph>
<glyph name="ordmasculine" format="1">
  <advance width="275"/>
  <unicode hex="00BA"/>
  <outline>
    <contour>
      <point x="154" y="371" type="curve" smooth="yes"/>
      <point x="240" y="371"/>
      <point x="340" y="470"/>
      <point x="340" y="576" type="curve" smooth="yes"/>
      <point x="340" y="639"/>
      <point x="302" y="688"/>
      <point x="241" y="688" type="curve" smooth="yes"/>
      <point x="152" y="688"/>
      <point x="52" y="589"/>
      <point x="52" y="481" type="curve" smooth="yes"/>
      <point x="52" y="419"/>
      <point x="89" y="371"/>
    </contour>
    <contour>
      <point x="232" y="660" type="curve" smooth="yes"/>
      <point x="280" y="660"/>
      <point x="306" y="617"/>
      <point x="306" y="568" type="curve" smooth="yes"/>
      <point x="306" y="481"/>
      <point x="225" y="398"/>
      <point x="160" y="398" type="curve" smooth="yes"/>
      <point x="114" y="398"/>
      <point x="86" y="433"/>
      <point x="86" y="484" type="curve" smooth="yes"/>
      <point x="86" y="575"/>
      <point x="167" y="660"/>
    </contour>
  </outline>
</glyph>
<glyph name="Igrave" format="1">
  <advance width="427"/>
  <unicode hex="00CC"/>
  <outline>
    <contour>
      <point x="396" y="770" type="line"/>
      <point x="309" y="904" type="line"/>
      <point x="262" y="879" type="line"/>
      <point x="363" y="750" type="line"/>
    </contour>
    <contour>
      <point x="442" y="644" type="line"/>
      <point x="457" y="681" type="line"/>
      <point x="162" y="681" type="line"/>
      <point x="147" y="644" type="line"/>
      <point x="282" y="644" type="line"/>
      <point x="153" y="37" type="line"/>
      <point x="25" y="37" type="line"/>
      <point x="11" y="0" type="line"/>
      <point x="306" y="0" type="line"/>
      <point x="320" y="37" type="line"/>
      <point x="190" y="37" type="line"/>
      <point x="319" y="644" type="line"/>
    </contour>
  </outline>
</glyph>
<glyph name="Iacute" format="1">
  <advance width="427"/>
  <unicode hex="00CD"/>
  <outline>
    <contour>
      <point x="247" y="784" type="line"/>
      <point x="268" y="760" type="line"/>
      <point x="440" y="864" type="line"/>
      <point x="409" y="896" type="line"/>
    </contour>
    <contour>
      <point x="442" y="644" type="line"/>
      <point x="457" y="681" type="line"/>
      <point x="162" y="681" type="line"/>
      <point x="147" y="644" type="line"/>
      <point x="282" y="644" type="line"/>
      <point x="153" y="37" type="line"/>
      <point x="25" y="37" type="line"/>
      <point x="11" y="0" type="line"/>
      <point x="306" y="0" type="line"/>
      <point x="320" y="37" type="line"/>
      <point x="190" y="37" type="line"/>
      <point x="319" y="644" type="line"/>
    </contour>
  </outline>
</glyph>
<glyph name="Eth" format="1">
  <advance width="666"/>
  <unicode hex="00D0"/>
  <outline>
    <contour>
      <point x="147" y="340" type="line"/>
      <point x="54" y="340" type="line"/>
      <point x="38" y="300" type="line"/>
      <point x="138" y="300" type="line"/>
      <point x="74" y="-1" type="line"/>
      <point x="113" y="-10"/>
      <point x="173" y="-15"/>
      <point x="207" y="-15" type="curve" smooth="yes"/>
      <point x="460" y="-15"/>
      <point x="633" y="142"/>
      <point x="633" y="391" type="curve" smooth="yes"/>
      <point x="633" y="554"/>
      <point x="523" y="678"/>
      <point x="219" y="680" type="curve"/>
    </contour>
    <contour>
      <point x="173" y="300" type="line"/>
      <point x="277" y="300" type="line"/>
      <point x="293" y="340" type="line"/>
      <point x="182" y="340" type="line"/>
      <point x="247" y="646" type="line"/>
      <point x="294" y="645"/>
      <point x="391" y="635"/>
      <point x="468" y="595" type="curve" smooth="yes"/>
      <point x="554" y="550"/>
      <point x="598" y="480"/>
      <point x="598" y="384" type="curve" smooth="yes"/>
      <point x="598" y="241"/>
      <point x="528" y="125"/>
      <point x="431" y="70" type="curve" smooth="yes"/>
      <point x="357" y="29"/>
      <point x="271" y="20"/>
      <point x="215" y="20" type="curve" smooth="yes"/>
      <point x="173" y="20"/>
      <point x="136" y="23"/>
      <point x="115" y="27" type="curve"/>
    </contour>
  </outline>
</glyph>
<glyph name="multiply" format="1">
  <advance width="344"/>
  <unicode hex="00D7"/>
  <outline>
    <contour>
      <point x="199" y="253" type="line"/>
      <point x="306" y="342" type="line"/>
      <point x="287" y="366" type="line"/>
      <point x="180" y="277" type="line"/>
      <point x="116" y="358" type="line"/>
      <point x="87" y="334" type="line"/>
      <point x="151" y="253" type="line"/>
      <point x="41" y="162" type="line"/>
      <point x="60" y="139" type="line"/>
      <point x="170" y="228" type="line"/>
      <point x="238" y="141" type="line"/>
      <point x="268" y="165" type="line"/>
    </contour>
  </outline>
</glyph>
<glyph name="Udieresis" format="1">
  <advance width="674"/>
  <unicode hex="00DC"/>
  <outline>
    <contour>
      <point x="420" y="822" type="line"/>
      <point x="364" y="814" type="line"/>
      <point x="344" y="750" type="line"/>
      <point x="400" y="758" type="line"/>
    </contour>
    <contour>
      <point x="585" y="822" type="line"/>
      <point x="529" y="814" type="line"/>
      <point x="509" y="750" type="line"/>
      <point x="565" y="758" type="line"/>
    </contour>
    <contour>
      <point x="287" y="0" type="curve" smooth="yes"/>
      <point x="542" y="0"/>
      <point x="613" y="247"/>
      <point x="663" y="480" type="curve" smooth="yes"/>
      <point x="679" y="556"/>
      <point x="699" y="653"/>
      <point x="704" y="678" type="curve"/>
      <point x="664" y="670" type="line"/>
      <point x="655" y="624"/>
      <point x="633" y="513"/>
      <point x="616" y="434" type="curve" smooth="yes"/>
      <point x="577" y="253"/>
      <point x="513" y="30"/>
      <point x="293" y="30" type="curve" smooth="yes"/>
      <point x="157" y="30"/>
      <point x="116" y="113"/>
      <point x="116" y="230" type="curve" smooth="yes"/>
      <point x="116" y="363"/>
      <point x="179" y="613"/>
      <point x="196" y="678" type="curve"/>
      <point x="157" y="671" type="line"/>
      <point x="130" y="565"/>
      <point x="79" y="346"/>
      <point x="79" y="225" type="curve" smooth="yes"/>
      <point x="79" y="88"/>
      <point x="130" y="0"/>
    </contour>
  </outline>
</glyph>
<glyph name="Yacute" format="1">
  <advance width="618"/>
  <unicode hex="00DD"/>
  <outline>
    <contour>
      <point x="361" y="784" type="line"/>
      <point x="523" y="896" type="line"/>
      <point x="554" y="864" type="line"/>
      <point x="381" y="760" type="line"/>
    </contour>
    <contour>
      <point x="318" y="243" type="line"/>
      <point x="667" y="677" type="line"/>
      <point x="707" y="677" type="line"/>
      <point x="162" y="0" type="line"/>
      <point x="123" y="0" type="line"/>
      <point x="290" y="210" type="line"/>
      <point x="117" y="677" type="line"/>
      <point x="156" y="677" type="line"/>
    </contour>
  </outline>
</glyph>
<glyph name="germandbls" format="1">
  <advance width="515"/>
  <unicode hex="00DF"/>
  <outline>
    <contour>
      <point x="363" y="362" type="curve"/>
      <point x="436" y="342"/>
      <point x="477" y="283"/>
      <point x="477" y="214" type="curve" smooth="yes"/>
      <point x="477" y="91"/>
      <point x="357" y="-25"/>
      <point x="235" y="-25" type="curve" smooth="yes"/>
      <point x="205" y="-25"/>
      <point x="179" y="-19"/>
      <point x="139" y="4" type="curve"/>
      <point x="161" y="33" type="line"/>
      <point x="193" y="15"/>
      <point x="218" y="8"/>
      <point x="242" y="8" type="curve" smooth="yes"/>
      <point x="338" y="8"/>
      <point x="440" y="101"/>
      <point x="440" y="204" type="curve" smooth="yes"/>
      <point x="440" y="272"/>
      <point x="396" y="333"/>
      <point x="314" y="333" type="curve" smooth="yes"/>
      <point x="293" y="333"/>
      <point x="277" y="331"/>
      <point x="248" y="325" type="curve"/>
      <point x="266" y="359" type="line"/>
      <point x="378" y="379"/>
      <point x="420" y="453"/>
      <point x="420" y="512" type="curve" smooth="yes"/>
      <point x="420" y="569"/>
      <point x="380" y="612"/>
      <point x="319" y="612" type="curve" smooth="yes"/>
      <point x="249" y="612"/>
      <point x="181" y="555"/>
      <point x="166" y="486" type="curve" smooth="yes"/>
      <point x="67" y="23" type="line"/>
      <point x="24" y="-6" type="line"/>
      <point x="129" y="486" type="line" smooth="yes"/>
      <point x="148" y="574"/>
      <point x="238" y="646"/>
      <point x="326" y="646" type="curve" smooth="yes"/>
      <point x="401" y="646"/>
      <point x="454" y="592"/>
      <point x="454" y="520" type="curve" smooth="yes"/>
      <point x="454" y="472"/>
      <point x="424" y="402"/>
    </contour>
  </outline>
</glyph>
<glyph name="atilde" format="1">
  <advance width="503"/>
  <unicode hex="00E3"/>
  <outline>
    <contour>
      <point x="364" y="656" type="curve"/>
      <point x="382" y="617"/>
      <point x="391" y="610"/>
      <point x="412" y="610" type="curve" smooth="yes"/>
      <point x="450" y="610"/>
      <point x="484" y="657"/>
      <point x="502" y="691" type="curve"/>
      <point x="531" y="681" type="line"/>
      <point x="502" y="625"/>
      <point x="450" y="579"/>
      <point x="406" y="579" type="curve" smooth="yes"/>
      <point x="365" y="579"/>
      <point x="348" y="610"/>
      <point x="335" y="637" type="curve" smooth="yes"/>
      <point x="317" y="674"/>
      <point x="307" y="680"/>
      <point x="287" y="680" type="curve" smooth="yes"/>
      <point x="253" y="680"/>
      <point x="218" y="638"/>
      <point x="202" y="607" type="curve"/>
      <point x="174" y="617" type="line"/>
      <point x="199" y="661"/>
      <point x="242" y="712"/>
      <point x="294" y="712" type="curve" smooth="yes"/>
      <point x="336" y="712"/>
      <point x="351" y="681"/>
    </contour>
    <contour>
      <point x="482" y="475" type="curve"/>
      <point x="384" y="10" type="line"/>
      <point x="344" y="2" type="line"/>
      <point x="357" y="65" type="line"/>
      <point x="310" y="39"/>
      <point x="239" y="7"/>
      <point x="184" y="7" type="curve" smooth="yes"/>
      <point x="94" y="7"/>
      <point x="37" y="69"/>
      <point x="37" y="164" type="curve" smooth="yes"/>
      <point x="37" y="309"/>
      <point x="166" y="513"/>
      <point x="343" y="513" type="curve" smooth="yes"/>
      <point x="396" y="513"/>
      <point x="442" y="497"/>
    </contour>
    <contour>
      <point x="190" y="44" type="curve" smooth="yes"/>
      <point x="255" y="44"/>
      <point x="336" y="91"/>
      <point x="365" y="109" type="curve"/>
      <point x="442" y="450" type="line"/>
      <point x="420" y="459"/>
      <point x="375" y="477"/>
      <point x="340" y="477" type="curve" smooth="yes"/>
      <point x="147" y="477"/>
      <point x="77" y="235"/>
      <point x="77" y="171" type="curve" smooth="yes"/>
      <point x="77" y="106"/>
      <point x="106" y="45"/>
    </contour>
  </outline>
</glyph>
<glyph name="adieresis" format="1">
  <advance width="494"/>
  <unicode hex="00E4"/>
  <outline>
    <contour>
      <point x="320" y="669" type="line"/>
      <point x="262" y="660" type="line"/>
      <point x="242" y="596" type="line"/>
      <point x="298" y="604" type="line"/>
    </contour>
    <contour>
      <point x="486" y="669" type="line"/>
      <point x="429" y="660" type="line"/>
      <point x="409" y="596" type="line"/>
      <point x="465" y="604" type="line"/>
    </contour>
    <contour>
      <point x="482" y="475" type="line"/>
      <point x="442" y="497"/>
      <point x="396" y="513"/>
      <point x="343" y="513" type="curve" smooth="yes"/>
      <point x="166" y="513"/>
      <point x="37" y="309"/>
      <point x="37" y="164" type="curve" smooth="yes"/>
      <point x="37" y="69"/>
      <point x="94" y="7"/>
      <point x="184" y="7" type="curve" smooth="yes"/>
      <point x="239" y="7"/>
      <point x="310" y="39"/>
      <point x="357" y="65" type="curve"/>
      <point x="344" y="2" type="line"/>
      <point x="384" y="10" type="line"/>
    </contour>
    <contour>
      <point x="190" y="44" type="curve" smooth="yes"/>
      <point x="106" y="45"/>
      <point x="77" y="106"/>
      <point x="77" y="171" type="curve" smooth="yes"/>
      <point x="77" y="235"/>
      <point x="147" y="477"/>
      <point x="340" y="477" type="curve" smooth="yes"/>
      <point x="375" y="477"/>
      <point x="420" y="459"/>
      <point x="442" y="450" type="curve"/>
      <point x="365" y="109" type="line"/>
      <point x="336" y="91"/>
      <point x="255" y="44"/>
    </contour>
  </outline>
</glyph>
<glyph name="ccedilla" format="1">
  <advance width="497"/>
  <unicode hex="00E7"/>
  <outline>
    <contour>
      <point x="230" y="33" type="curve"/>
      <point x="182" y="33"/>
      <point x="73" y="53"/>
      <point x="73" y="169" type="curve" smooth="yes"/>
      <point x="73" y="257"/>
      <point x="183" y="469"/>
      <point x="321" y="469" type="curve" smooth="yes"/>
      <point x="369" y="469"/>
      <point x="407" y="450"/>
      <point x="426" y="413" type="curve"/>
      <point x="458" y="438" type="line"/>
      <point x="432" y="478"/>
      <point x="384" y="502"/>
      <point x="326" y="502" type="curve" smooth="yes"/>
      <point x="168" y="502"/>
      <point x="38" y="276"/>
      <point x="38" y="171" type="curve" smooth="yes"/>
      <point x="38" y="83"/>
      <point x="98" y="15"/>
      <point x="182" y="2" type="curve"/>
      <point x="151" y="-52" type="line"/>
      <point x="168" y="-72" type="line"/>
      <point x="177" y="-68"/>
      <point x="190" y="-64"/>
      <point x="201" y="-64" type="curve" smooth="yes"/>
      <point x="230" y="-64"/>
      <point x="250" y="-85"/>
      <point x="250" y="-112" type="curve" smooth="yes"/>
      <point x="250" y="-152"/>
      <point x="213" y="-186"/>
      <point x="175" y="-186" type="curve" smooth="yes"/>
      <point x="154" y="-186"/>
      <point x="143" y="-177"/>
      <point x="134" y="-168" type="curve"/>
      <point x="113" y="-184" type="line"/>
      <point x="126" y="-200"/>
      <point x="146" y="-209"/>
      <point x="170" y="-209" type="curve" smooth="yes"/>
      <point x="223" y="-209"/>
      <point x="274" y="-161"/>
      <point x="274" y="-106" type="curve" smooth="yes"/>
      <point x="274" y="-66"/>
      <point x="244" y="-41"/>
      <point x="198" y="-41" type="curve" smooth="yes"/>
      <point x="184" y="-41" type="line"/>
      <point x="194" y="0" type="line"/>
      <point x="224" y="0" type="line"/>
      <point x="298" y="3"/>
      <point x="367" y="35"/>
      <point x="416" y="90" type="curve"/>
      <point x="396" y="115" type="line"/>
      <point x="356" y="67"/>
      <point x="294" y="36"/>
    </contour>
  </outline>
</glyph>
<glyph name="eacute" format="1">
  <advance width="517"/>
  <unicode hex="00E9"/>
  <outline>
    <contour>
      <point x="257" y="617" type="line"/>
      <point x="277" y="593" type="line"/>
      <point x="451" y="698" type="line"/>
      <point x="421" y="730" type="line"/>
    </contour>
    <contour>
      <point x="239" y="0" type="curve" smooth="yes"/>
      <point x="299" y="0"/>
      <point x="362" y="25"/>
      <point x="417" y="68" type="curve"/>
      <point x="399" y="91" type="line"/>
      <point x="352" y="54"/>
      <point x="297" y="32"/>
      <point x="245" y="32" type="curve" smooth="yes"/>
      <point x="164" y="32"/>
      <point x="103" y="83"/>
      <point x="82" y="159" type="curve"/>
      <point x="495" y="365" type="line"/>
      <point x="486" y="441"/>
      <point x="429" y="502"/>
      <point x="345" y="502" type="curve" smooth="yes"/>
      <point x="193" y="502"/>
      <point x="44" y="356"/>
      <point x="44" y="196" type="curve" smooth="yes"/>
      <point x="44" y="83"/>
      <point x="123" y="0"/>
    </contour>
    <contour>
      <point x="338" y="470" type="curve" smooth="yes"/>
      <point x="391" y="470"/>
      <point x="436" y="436"/>
      <point x="456" y="379" type="curve"/>
      <point x="78" y="190" type="line"/>
      <point x="78" y="206" type="line" smooth="yes"/>
      <point x="78" y="339"/>
      <point x="203" y="470"/>
    </contour>
  </outline>
</glyph>
<glyph name="iacute" format="1">
  <advance width="195"/>
  <unicode hex="00ED"/>
  <outline>
    <contour>
      <point x="110" y="617" type="line"/>
      <point x="274" y="730" type="line"/>
      <point x="304" y="698" type="line"/>
      <point x="130" y="593" type="line"/>
    </contour>
    <contour>
      <point x="120" y="493" type="line"/>
      <point x="161" y="498" type="line"/>
      <point x="57" y="9" type="line"/>
      <point x="16" y="2" type="line"/>
    </contour>
  </outline>
</glyph>
<glyph name="icircumflex" format="1">
  <advance width="236"/>
  <unicode hex="00EE"/>
  <outline>
    <contour>
      <point x="89" y="575" type="line"/>
      <point x="74" y="603" type="line"/>
      <point x="239" y="718" type="line"/>
      <point x="335" y="603" type="line"/>
      <point x="306" y="577" type="line"/>
      <point x="225" y="667" type="line"/>
    </contour>
    <contour>
      <point x="154" y="493" type="line"/>
      <point x="195" y="498" type="line"/>
      <point x="91" y="9" type="line"/>
      <point x="50" y="2" type="line"/>
    </contour>
  </outline>
</glyph>
<glyph name="eth" format="1">
  <advance width="472"/>
  <unicode hex="00F0"/>
  <outline>
    <contour>
      <point x="332" y="599" type="curve"/>
      <point x="367" y="619"/>
      <point x="428" y="646"/>
      <point x="462" y="659" type="curve"/>
      <point x="459" y="678" type="line"/>
      <point x="421" y="663"/>
      <point x="366" y="636"/>
      <point x="321" y="614" type="curve"/>
      <point x="273" y="672" type="line"/>
      <point x="248" y="647" type="line"/>
      <point x="258" y="635"/>
      <point x="271" y="620"/>
      <point x="288" y="599" type="curve"/>
      <point x="251" y="579"/>
      <point x="194" y="550"/>
      <point x="156" y="528" type="curve"/>
      <point x="163" y="509" type="line"/>
      <point x="188" y="524"/>
      <point x="246" y="556"/>
      <point x="300" y="583" type="curve"/>
      <point x="327" y="544"/>
      <point x="359" y="494"/>
      <point x="382" y="433" type="curve"/>
      <point x="205" y="433"/>
      <point x="28" y="312"/>
      <point x="28" y="132" type="curve" smooth="yes"/>
      <point x="28" y="52"/>
      <point x="81" y="0"/>
      <point x="159" y="0" type="curve" smooth="yes"/>
      <point x="318" y="0"/>
      <point x="435" y="174"/>
      <point x="435" y="319" type="curve" smooth="yes"/>
      <point x="435" y="425"/>
      <point x="384" y="526"/>
    </contour>
    <contour>
      <point x="165" y="32" type="curve" smooth="yes"/>
      <point x="102" y="32"/>
      <point x="62" y="71"/>
      <point x="62" y="135" type="curve" smooth="yes"/>
      <point x="62" y="313"/>
      <point x="234" y="401"/>
      <point x="391" y="401" type="curve"/>
      <point x="398" y="373"/>
      <point x="402" y="345"/>
      <point x="402" y="318" type="curve" smooth="yes"/>
      <point x="402" y="196"/>
      <point x="306" y="32"/>
    </contour>
  </outline>
</glyph>
<glyph name="otilde" format="1">
  <advance width="525"/>
  <unicode hex="00F5"/>
  <outline>
    <contour>
      <point x="197" y="0" type="curve" smooth="yes"/>
      <point x="100" y="0"/>
      <point x="40" y="76"/>
      <point x="40" y="176" type="curve" smooth="yes"/>
      <point x="40" y="347"/>
      <point x="191" y="500"/>
      <point x="335" y="500" type="curve" smooth="yes"/>
      <point x="431" y="500"/>
      <point x="492" y="424"/>
      <point x="492" y="325" type="curve" smooth="yes"/>
      <point x="492" y="154"/>
      <point x="334" y="0"/>
    </contour>
    <contour>
      <point x="323" y="467" type="curve" smooth="yes"/>
      <point x="208" y="467"/>
      <point x="79" y="325"/>
      <point x="79" y="177" type="curve" smooth="yes"/>
      <point x="79" y="94"/>
      <point x="124" y="32"/>
      <point x="205" y="32" type="curve" smooth="yes"/>
      <point x="316" y="32"/>
      <point x="452" y="170"/>
      <point x="452" y="315" type="curve" smooth="yes"/>
      <point x="452" y="401"/>
      <point x="401" y="467"/>
    </contour>
    <contour>
      <point x="386" y="656" type="curve"/>
      <point x="404" y="617"/>
      <point x="413" y="610"/>
      <point x="434" y="610" type="curve" smooth="yes"/>
      <point x="472" y="610"/>
      <point x="506" y="657"/>
      <point x="524" y="691" type="curve"/>
      <point x="553" y="681" type="line"/>
      <point x="524" y="625"/>
      <point x="472" y="579"/>
      <point x="428" y="579" type="curve" smooth="yes"/>
      <point x="387" y="579"/>
      <point x="370" y="610"/>
      <point x="357" y="637" type="curve" smooth="yes"/>
      <point x="339" y="674"/>
      <point x="329" y="680"/>
      <point x="309" y="680" type="curve" smooth="yes"/>
      <point x="275" y="680"/>
      <point x="240" y="638"/>
      <point x="224" y="607" type="curve"/>
      <point x="196" y="617" type="line"/>
      <point x="221" y="661"/>
      <point x="264" y="712"/>
      <point x="316" y="712" type="curve" smooth="yes"/>
      <point x="358" y="712"/>
      <point x="373" y="681"/>
    </contour>
  </outline>
</glyph>
<glyph name="ugrave" format="1">
  <advance width="506"/>
  <unicode hex="00F9"/>
  <outline>
    <contour>
      <point x="413" y="602" type="line"/>
      <point x="324" y="737" type="line"/>
      <point x="277" y="712" type="line"/>
      <point x="378" y="582" type="line"/>
    </contour>
    <contour>
      <point x="110" y="291" type="curve"/>
      <point x="127" y="368"/>
      <point x="158" y="465"/>
      <point x="171" y="502" type="curve"/>
      <point x="134" y="495" type="line"/>
      <point x="108" y="425"/>
      <point x="84" y="335"/>
      <point x="75" y="291" type="curve" smooth="yes"/>
      <point x="62" y="230"/>
      <point x="49" y="168"/>
      <point x="49" y="116" type="curve" smooth="yes"/>
      <point x="49" y="45"/>
      <point x="74" y="-6"/>
      <point x="160" y="-6" type="curve" smooth="yes"/>
      <point x="235" y="-6"/>
      <point x="321" y="47"/>
      <point x="369" y="90" type="curve"/>
      <point x="350" y="2" type="line"/>
      <point x="395" y="9" type="line"/>
      <point x="500" y="502" type="line"/>
      <point x="460" y="495" type="line"/>
      <point x="391" y="175" type="line" smooth="yes"/>
      <point x="385" y="149"/>
      <point x="375" y="132"/>
      <point x="365" y="123" type="curve" smooth="yes"/>
      <point x="336" y="97"/>
      <point x="244" y="26"/>
      <point x="168" y="26" type="curve" smooth="yes"/>
      <point x="104" y="26"/>
      <point x="84" y="66"/>
      <point x="84" y="123" type="curve" smooth="yes"/>
      <point x="84" y="171"/>
      <point x="98" y="231"/>
    </contour>
  </outline>
</glyph>
<glyph name="yacute" format="1">
  <advance width="490"/>
  <unicode hex="00FD"/>
  <outline>
    <contour>
      <point x="249" y="617" type="line"/>
      <point x="270" y="593" type="line"/>
      <point x="444" y="698" type="line"/>
      <point x="413" y="730" type="line"/>
    </contour>
    <contour>
      <point x="492" y="496" type="line"/>
      <point x="221" y="97" type="line"/>
      <point x="109" y="495" type="line"/>
      <point x="70" y="478" type="line"/>
      <point x="193" y="52" type="line"/>
      <point x="30" y="-186" type="line"/>
      <point x="61" y="-203" type="line"/>
      <point x="522" y="479" type="line"/>
    </contour>
  </outline>
</glyph>
<glyph name="thorn" format="1">
  <advance width="518"/>
  <unicode hex="00FE"/>
  <outline>
    <contour>
      <point x="353" y="488" type="curve" smooth="yes"/>
      <point x="273" y="488"/>
      <point x="185" y="440"/>
      <point x="130" y="381" type="curve"/>
      <point x="198" y="697" type="line"/>
      <point x="158" y="688" type="line"/>
      <point x="-27" y="-183" type="line"/>
      <point x="9" y="-191" type="line"/>
      <point x="57" y="34" type="line"/>
      <point x="93" y="19"/>
      <point x="151" y="0"/>
      <point x="204" y="0" type="curve" smooth="yes"/>
      <point x="389" y="0"/>
      <point x="486" y="190"/>
      <point x="486" y="340" type="curve" smooth="yes"/>
      <point x="486" y="419"/>
      <point x="453" y="488"/>
    </contour>
    <contour>
      <point x="203" y="35" type="curve" smooth="yes"/>
      <point x="141" y="35"/>
      <point x="85" y="62"/>
      <point x="65" y="73" type="curve"/>
      <point x="109" y="282" type="line" smooth="yes"/>
      <point x="125" y="360"/>
      <point x="231" y="451"/>
      <point x="349" y="451" type="curve" smooth="yes"/>
      <point x="426" y="451"/>
      <point x="448" y="389"/>
      <point x="448" y="329" type="curve" smooth="yes"/>
      <point x="448" y="171"/>
      <point x="346" y="35"/>
    </contour>
  </outline>
</glyph>
<glyph name="ydieresis" format="1">
  <advance width="490"/>
  <unicode hex="00FF"/>
  <outline>
    <contour>
      <point x="291" y="669" type="line"/>
      <point x="234" y="660" type="line"/>
      <point x="214" y="596" type="line"/>
      <point x="270" y="604" type="line"/>
    </contour>
    <contour>
      <point x="458" y="669" type="line"/>
      <point x="401" y="660" type="line"/>
      <point x="381" y="596" type="line"/>
      <point x="437" y="604" type="line"/>
    </contour>
    <contour>
      <point x="492" y="497" type="line"/>
      <point x="221" y="98" type="line"/>
      <point x="109" y="496" type="line"/>
      <point x="70" y="479" type="line"/>
      <point x="193" y="53" type="line"/>
      <point x="30" y="-185" type="line"/>
      <point x="62" y="-202" type="line"/>
      <point x="523" y="480" type="line"/>
    </contour>
  </outline>
</glyph>
<glyph name="Abreve" format="1">
  <advance width="613"/>
  <unicode hex="0102"/>
  <outline>
    <contour>
      <point x="444" y="679" type="line"/>
      <point x="382" y="668" type="line"/>
      <point x="133" y="241" type="line"/>
      <point x="57" y="227" type="line"/>
      <point x="57" y="191" type="line"/>
      <point x="107" y="201" type="line"/>
      <point x="3" y="22" type="line"/>
      <point x="32" y="4" type="line"/>
      <point x="153" y="211" type="line"/>
      <point x="453" y="271" type="line"/>
      <point x="484" y="7" type="line"/>
      <point x="519" y="29" type="line"/>
    </contour>
    <contour>
      <point x="178" y="251" type="line"/>
      <point x="409" y="646" type="line"/>
      <point x="448" y="304" type="line"/>
    </contour>
    <contour>
      <point x="445" y="788" type="curve" smooth="yes"/>
      <point x="406" y="788"/>
      <point x="359" y="800"/>
      <point x="333" y="858" type="curve"/>
      <point x="313" y="841" type="line"/>
      <point x="328" y="793"/>
      <point x="375" y="761"/>
      <point x="441" y="761" type="curve" smooth="yes"/>
      <point x="500" y="761"/>
      <point x="565" y="796"/>
      <point x="596" y="845" type="curve"/>
      <point x="582" y="862" type="line"/>
      <point x="551" y="813"/>
      <point x="498" y="788"/>
    </contour>
  </outline>
</glyph>
<glyph name="aogonek" format="1">
  <advance width="500"/>
  <unicode hex="0105"/>
  <outline>
    <contour>
      <point x="384" y="10" type="line"/>
      <point x="482" y="475" type="line"/>
      <point x="442" y="497"/>
      <point x="396" y="513"/>
      <point x="343" y="513" type="curve" smooth="yes"/>
      <point x="175" y="513"/>
      <point x="37" y="309"/>
      <point x="37" y="164" type="curve" smooth="yes"/>
      <point x="37" y="69"/>
      <point x="94" y="7"/>
      <point x="184" y="7" type="curve" smooth="yes"/>
      <point x="239" y="7"/>
      <point x="310" y="39"/>
      <point x="357" y="65" type="curve"/>
      <point x="348" y="20" type="line"/>
      <point x="293" y="-7"/>
      <point x="223" y="-65"/>
      <point x="223" y="-134" type="curve" smooth="yes"/>
      <point x="223" y="-179"/>
      <point x="255" y="-209"/>
      <point x="304" y="-209" type="curve" smooth="yes"/>
      <point x="341" y="-209"/>
      <point x="382" y="-191"/>
      <point x="404" y="-172" type="curve"/>
      <point x="392" y="-149" type="line"/>
      <point x="364" y="-166"/>
      <point x="346" y="-177"/>
      <point x="311" y="-177" type="curve" smooth="yes"/>
      <point x="278" y="-177"/>
      <point x="254" y="-158"/>
      <point x="254" y="-127" type="curve" smooth="yes"/>
      <point x="254" y="-70"/>
      <point x="312" y="-35"/>
      <point x="343" y="-15" type="curve" smooth="yes"/>
    </contour>
    <contour>
      <point x="190" y="44" type="curve" smooth="yes"/>
      <point x="106" y="45"/>
      <point x="77" y="106"/>
      <point x="77" y="171" type="curve" smooth="yes"/>
      <point x="77" y="235"/>
      <point x="147" y="477"/>
      <point x="340" y="477" type="curve" smooth="yes"/>
      <point x="375" y="477"/>
      <point x="420" y="459"/>
      <point x="442" y="450" type="curve"/>
      <point x="365" y="109" type="line"/>
      <point x="336" y="91"/>
      <point x="255" y="44"/>
    </contour>
  </outline>
</glyph>
<glyph name="cacute" format="1">
  <advance width="497"/>
  <unicode hex="0107"/>
  <outline>
    <contour>
      <point x="277" y="617" type="line"/>
      <point x="297" y="593" type="line"/>
      <point x="471" y="698" type="line"/>
      <point x="441" y="730" type="line"/>
    </contour>
    <contour>
      <point x="230" y="33" type="curve"/>
      <point x="182" y="33"/>
      <point x="73" y="53"/>
      <point x="73" y="169" type="curve" smooth="yes"/>
      <point x="73" y="257"/>
      <point x="183" y="469"/>
      <point x="321" y="469" type="curve" smooth="yes"/>
      <point x="369" y="469"/>
      <point x="407" y="450"/>
      <point x="426" y="413" type="curve"/>
      <point x="458" y="438" type="line"/>
      <point x="432" y="478"/>
      <point x="384" y="502"/>
      <point x="326" y="502" type="curve" smooth="yes"/>
      <point x="168" y="502"/>
      <point x="38" y="277"/>
      <point x="38" y="172" type="curve" smooth="yes"/>
      <point x="38" y="73"/>
      <point x="114" y="0"/>
      <point x="213" y="0" type="curve" smooth="yes"/>
      <point x="291" y="0"/>
      <point x="365" y="32"/>
      <point x="416" y="90" type="curve"/>
      <point x="396" y="115" type="line"/>
      <point x="356" y="67"/>
      <point x="294" y="36"/>
    </contour>
  </outline>
</glyph>
<glyph name="Dcaron" format="1">
  <advance width="606"/>
  <unicode hex="010E"/>
  <outline>
    <contour>
      <point x="516" y="884" type="line"/>
      <point x="532" y="854" type="line"/>
      <point x="367" y="743" type="line"/>
      <point x="273" y="855" type="line"/>
      <point x="303" y="883" type="line"/>
      <point x="381" y="792" type="line"/>
    </contour>
    <contour>
      <point x="12" y="-1" type="curve"/>
      <point x="157" y="680" type="line"/>
      <point x="461" y="678"/>
      <point x="571" y="554"/>
      <point x="571" y="391" type="curve" smooth="yes"/>
      <point x="571" y="139"/>
      <point x="398" y="-15"/>
      <point x="145" y="-15" type="curve" smooth="yes"/>
      <point x="111" y="-15"/>
      <point x="51" y="-10"/>
    </contour>
    <contour>
      <point x="185" y="646" type="curve"/>
      <point x="53" y="27" type="line"/>
      <point x="74" y="23"/>
      <point x="111" y="20"/>
      <point x="153" y="20" type="curve" smooth="yes"/>
      <point x="209" y="20"/>
      <point x="295" y="29"/>
      <point x="369" y="70" type="curve" smooth="yes"/>
      <point x="466" y="125"/>
      <point x="536" y="241"/>
      <point x="536" y="384" type="curve" smooth="yes"/>
      <point x="536" y="480"/>
      <point x="492" y="550"/>
      <point x="406" y="595" type="curve" smooth="yes"/>
      <point x="329" y="635"/>
      <point x="232" y="645"/>
    </contour>
  </outline>
</glyph>
<glyph name="dcaron" format="1">
  <advance width="599"/>
  <unicode hex="010F"/>
  <outline>
    <contour>
      <point x="668" y="696" type="line"/>
      <point x="617" y="651" type="line"/>
      <point x="649" y="629" type="line"/>
      <point x="572" y="529" type="line"/>
      <point x="600" y="510" type="line"/>
      <point x="720" y="666" type="line"/>
    </contour>
    <contour>
      <point x="513" y="696" type="line"/>
      <point x="458" y="457" type="line"/>
      <point x="422" y="475"/>
      <point x="374" y="495"/>
      <point x="318" y="495" type="curve" smooth="yes"/>
      <point x="157" y="495"/>
      <point x="38" y="344"/>
      <point x="38" y="158" type="curve" smooth="yes"/>
      <point x="38" y="76"/>
      <point x="75" y="6"/>
      <point x="166" y="6" type="curve" smooth="yes"/>
      <point x="244" y="6"/>
      <point x="317" y="45"/>
      <point x="372" y="97" type="curve"/>
      <point x="350" y="2" type="line"/>
      <point x="389" y="9" type="line"/>
      <point x="553" y="703" type="line"/>
    </contour>
    <contour>
      <point x="387" y="158" type="line" smooth="yes"/>
      <point x="379" y="123"/>
      <point x="283" y="36"/>
      <point x="172" y="36" type="curve" smooth="yes"/>
      <point x="96" y="36"/>
      <point x="75" y="96"/>
      <point x="75" y="157" type="curve" smooth="yes"/>
      <point x="75" y="235"/>
      <point x="124" y="460"/>
      <point x="307" y="460" type="curve" smooth="yes"/>
      <point x="370" y="460"/>
      <point x="429" y="428"/>
      <point x="448" y="417" type="curve"/>
    </contour>
  </outline>
</glyph>
<glyph name="Eogonek" format="1">
  <advance width="601"/>
  <unicode hex="0118"/>
  <outline>
    <contour>
      <point x="452" y="-149" type="curve"/>
      <point x="464" y="-172" type="line"/>
      <point x="442" y="-191"/>
      <point x="401" y="-209"/>
      <point x="364" y="-209" type="curve" smooth="yes"/>
      <point x="315" y="-209"/>
      <point x="283" y="-179"/>
      <point x="283" y="-134" type="curve" smooth="yes"/>
      <point x="283" y="-78"/>
      <point x="327" y="-32"/>
      <point x="374" y="0" type="curve"/>
      <point x="13" y="0" type="line"/>
      <point x="157" y="681" type="line"/>
      <point x="630" y="681" type="line"/>
      <point x="614" y="644" type="line"/>
      <point x="186" y="644" type="line"/>
      <point x="129" y="373" type="line"/>
      <point x="521" y="373" type="line"/>
      <point x="502" y="336" type="line"/>
      <point x="121" y="336" type="line"/>
      <point x="57" y="37" type="line"/>
      <point x="497" y="37" type="line"/>
      <point x="475" y="0" type="line"/>
      <point x="428" y="0" type="line"/>
      <point x="403" y="-15" type="line" smooth="yes"/>
      <point x="371" y="-34"/>
      <point x="315" y="-71"/>
      <point x="314" y="-127" type="curve" smooth="yes"/>
      <point x="314" y="-158"/>
      <point x="338" y="-177"/>
      <point x="371" y="-177" type="curve" smooth="yes"/>
      <point x="406" y="-177"/>
      <point x="424" y="-166"/>
    </contour>
  </outline>
</glyph>
<glyph name="eogonek" format="1">
  <advance width="517"/>
  <unicode hex="0119"/>
  <outline>
    <contour>
      <point x="304" y="-149" type="curve"/>
      <point x="316" y="-172" type="line"/>
      <point x="294" y="-191"/>
      <point x="253" y="-209"/>
      <point x="216" y="-209" type="curve" smooth="yes"/>
      <point x="167" y="-209"/>
      <point x="135" y="-179"/>
      <point x="135" y="-134" type="curve" smooth="yes"/>
      <point x="135" y="-78"/>
      <point x="180" y="-32"/>
      <point x="227" y="0" type="curve"/>
      <point x="117" y="5"/>
      <point x="44" y="87"/>
      <point x="44" y="196" type="curve" smooth="yes"/>
      <point x="44" y="356"/>
      <point x="192" y="502"/>
      <point x="345" y="502" type="curve" smooth="yes"/>
      <point x="429" y="502"/>
      <point x="486" y="441"/>
      <point x="495" y="365" type="curve"/>
      <point x="82" y="159" type="line"/>
      <point x="103" y="83"/>
      <point x="164" y="32"/>
      <point x="245" y="32" type="curve" smooth="yes"/>
      <point x="297" y="32"/>
      <point x="352" y="54"/>
      <point x="399" y="91" type="curve"/>
      <point x="417" y="68" type="line"/>
      <point x="384" y="42"/>
      <point x="360" y="31"/>
      <point x="328" y="18" type="curve" smooth="yes"/>
      <point x="252" y="-12"/>
      <point x="166" y="-59"/>
      <point x="166" y="-127" type="curve" smooth="yes"/>
      <point x="166" y="-158"/>
      <point x="190" y="-177"/>
      <point x="223" y="-177" type="curve" smooth="yes"/>
      <point x="258" y="-177"/>
      <point x="276" y="-166"/>
    </contour>
    <contour>
      <point x="338" y="470" type="curve" smooth="yes"/>
      <point x="203" y="470"/>
      <point x="78" y="339"/>
      <point x="78" y="206" type="curve" smooth="yes"/>
      <point x="78" y="190" type="line"/>
      <point x="456" y="379" type="line"/>
      <point x="436" y="436"/>
      <point x="391" y="470"/>
    </contour>
  </outline>
</glyph>
<glyph name="gcircumflex" format="1">
  <advance width="512"/>
  <unicode hex="011D"/>
  <outline>
    <contour>
      <point x="507" y="506" type="line"/>
      <point x="390" y="9" type="line" smooth="yes"/>
      <point x="360" y="-121"/>
      <point x="271" y="-193"/>
      <point x="147" y="-193" type="curve" smooth="yes"/>
      <point x="103" y="-193"/>
      <point x="62" y="-187"/>
      <point x="31" y="-181" type="curve"/>
      <point x="46" y="-144" type="line"/>
      <point x="75" y="-149"/>
      <point x="115" y="-155"/>
      <point x="156" y="-155" type="curve" smooth="yes"/>
      <point x="301" y="-155"/>
      <point x="341" y="-40"/>
      <point x="352" y="8" type="curve" smooth="yes"/>
      <point x="374" y="103" type="line"/>
      <point x="319" y="35"/>
      <point x="251" y="0"/>
      <point x="194" y="0" type="curve" smooth="yes"/>
      <point x="100" y="0"/>
      <point x="42" y="72"/>
      <point x="42" y="175" type="curve" smooth="yes"/>
      <point x="42" y="323"/>
      <point x="169" y="501"/>
      <point x="341" y="501" type="curve" smooth="yes"/>
      <point x="387" y="501"/>
      <point x="428" y="479"/>
      <point x="459" y="459" type="curve"/>
      <point x="468" y="500" type="line"/>
    </contour>
    <contour>
      <point x="415" y="269" type="curve" smooth="yes"/>
      <point x="448" y="425" type="line"/>
      <point x="425" y="445"/>
      <point x="379" y="465"/>
      <point x="335" y="465" type="curve" smooth="yes"/>
      <point x="196" y="465"/>
      <point x="76" y="321"/>
      <point x="76" y="182" type="curve" smooth="yes"/>
      <point x="76" y="111"/>
      <point x="105" y="34"/>
      <point x="196" y="34" type="curve" smooth="yes"/>
      <point x="273" y="34"/>
      <point x="377" y="92"/>
    </contour>
    <contour>
      <point x="230" y="575" type="line"/>
      <point x="214" y="603" type="line"/>
      <point x="381" y="718" type="line"/>
      <point x="477" y="603" type="line"/>
      <point x="448" y="577" type="line"/>
      <point x="367" y="667" type="line"/>
    </contour>
  </outline>
</glyph>
<glyph name="jcircumflex" format="1">
  <advance width="303"/>
  <unicode hex="0135"/>
  <outline>
    <contour>
      <point x="-94" y="-28" type="curve"/>
      <point x="-56" y="-21" type="line"/>
      <point x="-46" y="-67"/>
      <point x="-18" y="-155"/>
      <point x="36" y="-155" type="curve" smooth="yes"/>
      <point x="90" y="-155"/>
      <point x="127" y="-92"/>
      <point x="143" y="-16" type="curve" smooth="yes"/>
      <point x="147" y="2"/>
      <point x="193" y="231"/>
      <point x="246" y="503" type="curve"/>
      <point x="286" y="511" type="line"/>
      <point x="232" y="234"/>
      <point x="187" y="7"/>
      <point x="183" y="-10" type="curve" smooth="yes"/>
      <point x="168" y="-81"/>
      <point x="124" y="-187"/>
      <point x="34" y="-187" type="curve" smooth="yes"/>
      <point x="-51" y="-187"/>
      <point x="-88" y="-66"/>
    </contour>
    <contour>
      <point x="160" y="575" type="line"/>
      <point x="144" y="603" type="line"/>
      <point x="311" y="718" type="line"/>
      <point x="407" y="603" type="line"/>
      <point x="378" y="577" type="line"/>
      <point x="297" y="667" type="line"/>
    </contour>
  </outline>
</glyph>
<glyph name="Lacute" format="1">
  <advance width="477"/>
  <unicode hex="0139"/>
  <outline>
    <contour>
      <point x="235" y="784" type="line"/>
      <point x="397" y="896" type="line"/>
      <point x="427" y="864" type="line"/>
      <point x="255" y="760" type="line"/>
    </contour>
    <contour>
      <point x="13" y="1" type="line"/>
      <point x="155" y="669" type="line"/>
      <point x="193" y="676" type="line"/>
      <point x="58" y="40" type="line"/>
      <point x="416" y="66" type="line"/>
      <point x="397" y="30" type="line"/>
    </contour>
  </outline>
</glyph>
<glyph name="Lcaron" format="1">
  <advance width="522"/>
  <unicode hex="013D"/>
  <outline>
    <contour>
      <point x="59" y="1" type="line"/>
      <point x="458" y="30" type="line"/>
      <point x="462" y="66" type="line"/>
      <point x="104" y="40" type="line"/>
      <point x="239" y="676" type="line"/>
      <point x="201" y="669" type="line"/>
    </contour>
    <contour>
      <point x="441" y="884" type="line"/>
      <point x="307" y="792" type="line"/>
      <point x="228" y="883" type="line"/>
      <point x="198" y="855" type="line"/>
      <point x="292" y="743" type="line"/>
      <point x="457" y="854" type="line"/>
    </contour>
  </outline>
</glyph>
<glyph name="Lslash" format="1">
  <advance width="539"/>
  <unicode hex="0141"/>
  <outline>
    <contour>
      <point x="475" y="30" type="line"/>
      <point x="77" y="1" type="line"/>
      <point x="143" y="312" type="line"/>
      <point x="72" y="272" type="line"/>
      <point x="56" y="304" type="line"/>
      <point x="152" y="357" type="line"/>
      <point x="219" y="669" type="line"/>
      <point x="257" y="676" type="line"/>
      <point x="194" y="380" type="line"/>
      <point x="266" y="420" type="line"/>
      <point x="280" y="388" type="line"/>
      <point x="185" y="335" type="line"/>
      <point x="122" y="40" type="line"/>
      <point x="479" y="66" type="line"/>
    </contour>
  </outline>
</glyph>
<glyph name="lslash" format="1">
  <advance width="256"/>
  <unicode hex="0142"/>
  <outline>
    <contour>
      <point x="263" y="393" type="line"/>
      <point x="248" y="425" type="line"/>
      <point x="176" y="384" type="line"/>
      <point x="243" y="698" type="line"/>
      <point x="203" y="689" type="line"/>
      <point x="133" y="361" type="line"/>
      <point x="37" y="307" type="line"/>
      <point x="53" y="276" type="line"/>
      <point x="123" y="315" type="line"/>
      <point x="57" y="2" type="line"/>
      <point x="96" y="9" type="line"/>
      <point x="166" y="338" type="line"/>
    </contour>
  </outline>
</glyph>
<glyph name="Nacute" format="1">
  <advance width="605"/>
  <unicode hex="0143"/>
  <outline>
    <contour>
      <point x="331" y="784" type="line"/>
      <point x="352" y="760" type="line"/>
      <point x="524" y="864" type="line"/>
      <point x="493" y="896" type="line"/>
    </contour>
    <contour>
      <point x="600" y="672" type="line"/>
      <point x="467" y="45" type="line"/>
      <point x="203" y="680" type="line"/>
      <point x="154" y="666" type="line"/>
      <point x="14" y="3" type="line"/>
      <point x="50" y="11" type="line"/>
      <point x="182" y="631" type="line"/>
      <point x="440" y="1" type="line"/>
      <point x="494" y="12" type="line"/>
      <point x="636" y="679" type="line"/>
    </contour>
  </outline>
</glyph>
<glyph name="Ncaron" format="1">
  <advance width="605"/>
  <unicode hex="0147"/>
  <outline>
    <contour>
      <point x="558" y="884" type="line"/>
      <point x="423" y="792" type="line"/>
      <point x="344" y="883" type="line"/>
      <point x="314" y="855" type="line"/>
      <point x="409" y="743" type="line"/>
      <point x="574" y="854" type="line"/>
    </contour>
    <contour>
      <point x="600" y="672" type="line"/>
      <point x="467" y="45" type="line"/>
      <point x="203" y="680" type="line"/>
      <point x="154" y="666" type="line"/>
      <point x="14" y="3" type="line"/>
      <point x="50" y="11" type="line"/>
      <point x="182" y="631" type="line"/>
      <point x="440" y="1" type="line"/>
      <point x="494" y="12" type="line"/>
      <point x="636" y="679" type="line"/>
    </contour>
  </outline>
</glyph>
<glyph name="ncaron" format="1">
  <advance width="526"/>
  <unicode hex="0148"/>
  <outline>
    <contour>
      <point x="504" y="718" type="line"/>
      <point x="366" y="625" type="line"/>
      <point x="287" y="717" type="line"/>
      <point x="257" y="688" type="line"/>
      <point x="353" y="575" type="line"/>
      <point x="520" y="687" type="line"/>
    </contour>
    <contour>
      <point x="156" y="500" type="line"/>
      <point x="117" y="493" type="line"/>
      <point x="13" y="2" type="line"/>
      <point x="51" y="10" type="line"/>
      <point x="76" y="126" type="line" smooth="yes"/>
      <point x="92" y="202"/>
      <point x="127" y="272"/>
      <point x="176" y="337" type="curve" smooth="yes"/>
      <point x="257" y="445"/>
      <point x="318" y="467"/>
      <point x="368" y="467" type="curve" smooth="yes"/>
      <point x="422" y="467"/>
      <point x="444" y="441"/>
      <point x="444" y="377" type="curve" smooth="yes"/>
      <point x="444" y="323"/>
      <point x="428" y="240"/>
      <point x="408" y="144" type="curve" smooth="yes"/>
      <point x="378" y="3" type="line"/>
      <point x="416" y="10" type="line"/>
      <point x="437" y="109" type="line" smooth="yes"/>
      <point x="465" y="244"/>
      <point x="480" y="333"/>
      <point x="481" y="397" type="curve"/>
      <point x="477" y="465"/>
      <point x="443" y="501"/>
      <point x="378" y="501" type="curve" smooth="yes"/>
      <point x="268" y="501"/>
      <point x="155" y="383"/>
      <point x="109" y="282" type="curve"/>
    </contour>
  </outline>
</glyph>
<glyph name="OE" format="1">
  <advance width="1083"/>
  <unicode hex="0152"/>
  <outline>
    <contour>
      <point x="506" y="0" type="line"/>
      <point x="968" y="0" type="line"/>
      <point x="990" y="37" type="line"/>
      <point x="550" y="37" type="line"/>
      <point x="614" y="336" type="line"/>
      <point x="995" y="336" type="line"/>
      <point x="1014" y="373" type="line"/>
      <point x="622" y="373" type="line"/>
      <point x="679" y="644" type="line"/>
      <point x="1107" y="644" type="line"/>
      <point x="1122" y="681" type="line"/>
      <point x="650" y="681" type="line"/>
      <point x="618" y="529" type="line"/>
      <point x="596" y="635"/>
      <point x="512" y="684"/>
      <point x="438" y="684" type="curve" smooth="yes"/>
      <point x="260" y="684"/>
      <point x="61" y="465"/>
      <point x="61" y="230" type="curve" smooth="yes"/>
      <point x="61" y="99"/>
      <point x="131" y="0"/>
      <point x="250" y="0" type="curve" smooth="yes"/>
      <point x="359" y="0"/>
      <point x="467" y="77"/>
      <point x="548" y="202" type="curve"/>
    </contour>
    <contour>
      <point x="583" y="365" type="curve"/>
      <point x="526" y="161"/>
      <point x="386" y="33"/>
      <point x="257" y="33" type="curve" smooth="yes"/>
      <point x="155" y="33"/>
      <point x="95" y="120"/>
      <point x="95" y="236" type="curve" smooth="yes"/>
      <point x="95" y="458"/>
      <point x="280" y="651"/>
      <point x="424" y="651" type="curve" smooth="yes"/>
      <point x="574" y="651"/>
      <point x="606" y="473"/>
    </contour>
  </outline>
</glyph>
<glyph name="rcaron" format="1">
  <advance width="392"/>
  <unicode hex="0159"/>
  <outline>
    <contour>
      <point x="443" y="718" type="line"/>
      <point x="305" y="625" type="line"/>
      <point x="226" y="717" type="line"/>
      <point x="196" y="688" type="line"/>
      <point x="292" y="575" type="line"/>
      <point x="458" y="687" type="line"/>
    </contour>
    <contour>
      <point x="157" y="500" type="line"/>
      <point x="118" y="493" type="line"/>
      <point x="14" y="2" type="line"/>
      <point x="52" y="9" type="line"/>
      <point x="104" y="252" type="line" smooth="yes"/>
      <point x="126" y="357"/>
      <point x="254" y="466"/>
      <point x="332" y="466" type="curve" smooth="yes"/>
      <point x="362" y="466"/>
      <point x="371" y="455"/>
      <point x="371" y="439" type="curve" smooth="yes"/>
      <point x="371" y="433"/>
      <point x="369" y="426"/>
      <point x="368" y="419" type="curve" smooth="yes"/>
      <point x="363" y="397" type="line"/>
      <point x="401" y="404" type="line"/>
      <point x="409" y="438" type="line" smooth="yes"/>
      <point x="410" y="442"/>
      <point x="410" y="446"/>
      <point x="410" y="449" type="curve" smooth="yes"/>
      <point x="410" y="480"/>
      <point x="384" y="502"/>
      <point x="347" y="502" type="curve" smooth="yes"/>
      <point x="262" y="502"/>
      <point x="169" y="421"/>
      <point x="128" y="366" type="curve"/>
    </contour>
  </outline>
</glyph>
<glyph name="sacute" format="1">
  <advance width="450"/>
  <unicode hex="015B"/>
  <outline>
    <contour>
      <point x="245" y="617" type="line"/>
      <point x="409" y="730" type="line"/>
      <point x="440" y="698" type="line"/>
      <point x="266" y="593" type="line"/>
    </contour>
    <contour>
      <point x="432" y="394" type="curve"/>
      <point x="400" y="386" type="line"/>
      <point x="402" y="395"/>
      <point x="402" y="402"/>
      <point x="402" y="408" type="curve" smooth="yes"/>
      <point x="402" y="459"/>
      <point x="347" y="475"/>
      <point x="300" y="475" type="curve" smooth="yes"/>
      <point x="190" y="475"/>
      <point x="142" y="424"/>
      <point x="142" y="365" type="curve" smooth="yes"/>
      <point x="142" y="327"/>
      <point x="179" y="304"/>
      <point x="249" y="284" type="curve" smooth="yes"/>
      <point x="337" y="258"/>
      <point x="383" y="225"/>
      <point x="383" y="168" type="curve" smooth="yes"/>
      <point x="383" y="35"/>
      <point x="234" y="0"/>
      <point x="179" y="0" type="curve" smooth="yes"/>
      <point x="99" y="0"/>
      <point x="33" y="35"/>
      <point x="24" y="107" type="curve"/>
      <point x="60" y="112" type="line"/>
      <point x="71" y="59"/>
      <point x="126" y="31"/>
      <point x="185" y="31" type="curve" smooth="yes"/>
      <point x="262" y="31"/>
      <point x="344" y="84"/>
      <point x="344" y="160" type="curve" smooth="yes"/>
      <point x="344" y="217"/>
      <point x="280" y="233"/>
      <point x="218" y="254" type="curve" smooth="yes"/>
      <point x="161" y="274"/>
      <point x="105" y="297"/>
      <point x="105" y="360" type="curve" smooth="yes"/>
      <point x="105" y="481"/>
      <point x="237" y="505"/>
      <point x="307" y="505" type="curve" smooth="yes"/>
      <point x="357" y="505"/>
      <point x="436" y="490"/>
      <point x="436" y="424" type="curve" smooth="yes"/>
      <point x="436" y="417"/>
      <point x="436" y="410"/>
    </contour>
  </outline>
</glyph>
<glyph name="Scedilla" format="1">
  <advance width="589"/>
  <unicode hex="015E"/>
  <outline>
    <contour>
      <point x="411" y="646" type="curve" smooth="yes"/>
      <point x="469" y="646"/>
      <point x="558" y="628"/>
      <point x="558" y="554" type="curve" smooth="yes"/>
      <point x="558" y="547"/>
      <point x="557" y="540"/>
      <point x="556" y="532" type="curve" smooth="yes"/>
      <point x="555" y="527" type="line"/>
      <point x="589" y="536" type="line"/>
      <point x="591" y="545" type="line" smooth="yes"/>
      <point x="593" y="555"/>
      <point x="594" y="564"/>
      <point x="594" y="572" type="curve" smooth="yes"/>
      <point x="594" y="655"/>
      <point x="499" y="681"/>
      <point x="418" y="681" type="curve" smooth="yes"/>
      <point x="294" y="681"/>
      <point x="152" y="630"/>
      <point x="152" y="491" type="curve" smooth="yes"/>
      <point x="152" y="406"/>
      <point x="243" y="364"/>
      <point x="326" y="340" type="curve" smooth="yes"/>
      <point x="457" y="303"/>
      <point x="481" y="244"/>
      <point x="481" y="206" type="curve" smooth="yes"/>
      <point x="481" y="99"/>
      <point x="356" y="33"/>
      <point x="254" y="33" type="curve" smooth="yes"/>
      <point x="178" y="33"/>
      <point x="101" y="67"/>
      <point x="84" y="145" type="curve"/>
      <point x="41" y="138" type="line"/>
      <point x="55" y="65"/>
      <point x="118" y="14"/>
      <point x="208" y="2" type="curve"/>
      <point x="179" y="-50" type="line"/>
      <point x="196" y="-70" type="line"/>
      <point x="206" y="-64"/>
      <point x="222" y="-62"/>
      <point x="228" y="-62" type="curve" smooth="yes"/>
      <point x="257" y="-62"/>
      <point x="277" y="-82"/>
      <point x="277" y="-109" type="curve" smooth="yes"/>
      <point x="277" y="-149"/>
      <point x="240" y="-184"/>
      <point x="202" y="-184" type="curve" smooth="yes"/>
      <point x="188" y="-184"/>
      <point x="171" y="-178"/>
      <point x="161" y="-166" type="curve"/>
      <point x="141" y="-182" type="line"/>
      <point x="153" y="-198"/>
      <point x="174" y="-207"/>
      <point x="198" y="-207" type="curve" smooth="yes"/>
      <point x="250" y="-207"/>
      <point x="302" y="-159"/>
      <point x="302" y="-104" type="curve" smooth="yes"/>
      <point x="302" y="-64"/>
      <point x="271" y="-39"/>
      <point x="225" y="-39" type="curve" smooth="yes"/>
      <point x="211" y="-39" type="line"/>
      <point x="221" y="0" type="line"/>
      <point x="231" y="0"/>
      <point x="240" y="-1"/>
      <point x="251" y="-1" type="curve" smooth="yes"/>
      <point x="354" y="-1"/>
      <point x="521" y="67"/>
      <point x="521" y="215" type="curve" smooth="yes"/>
      <point x="521" y="289"/>
      <point x="458" y="342"/>
      <point x="341" y="378" type="curve" smooth="yes"/>
      <point x="248" y="406"/>
      <point x="194" y="440"/>
      <point x="194" y="498" type="curve" smooth="yes"/>
      <point x="194" y="614"/>
      <point x="321" y="646"/>
    </contour>
  </outline>
</glyph>
<glyph name="Scaron" format="1">
  <advance width="589"/>
  <unicode hex="0160"/>
  <outline>
    <contour>
      <point x="572" y="884" type="line"/>
      <point x="437" y="792" type="line"/>
      <point x="358" y="883" type="line"/>
      <point x="329" y="855" type="line"/>
      <point x="423" y="743" type="line"/>
      <point x="587" y="854" type="line"/>
    </contour>
    <contour>
      <point x="411" y="646" type="curve" smooth="yes"/>
      <point x="469" y="646"/>
      <point x="558" y="628"/>
      <point x="558" y="554" type="curve" smooth="yes"/>
      <point x="558" y="547"/>
      <point x="557" y="540"/>
      <point x="556" y="532" type="curve" smooth="yes"/>
      <point x="555" y="527" type="line"/>
      <point x="589" y="536" type="line"/>
      <point x="591" y="545" type="line" smooth="yes"/>
      <point x="593" y="555"/>
      <point x="594" y="564"/>
      <point x="594" y="572" type="curve" smooth="yes"/>
      <point x="594" y="655"/>
      <point x="499" y="681"/>
      <point x="418" y="681" type="curve" smooth="yes"/>
      <point x="294" y="681"/>
      <point x="152" y="630"/>
      <point x="152" y="491" type="curve" smooth="yes"/>
      <point x="152" y="406"/>
      <point x="243" y="364"/>
      <point x="326" y="340" type="curve" smooth="yes"/>
      <point x="457" y="303"/>
      <point x="481" y="244"/>
      <point x="481" y="206" type="curve" smooth="yes"/>
      <point x="481" y="99"/>
      <point x="356" y="33"/>
      <point x="254" y="33" type="curve" smooth="yes"/>
      <point x="178" y="33"/>
      <point x="101" y="67"/>
      <point x="84" y="145" type="curve"/>
      <point x="41" y="138" type="line"/>
      <point x="57" y="54"/>
      <point x="139" y="-1"/>
      <point x="251" y="-1" type="curve" smooth="yes"/>
      <point x="354" y="-1"/>
      <point x="521" y="67"/>
      <point x="521" y="215" type="curve" smooth="yes"/>
      <point x="521" y="289"/>
      <point x="458" y="342"/>
      <point x="341" y="378" type="curve" smooth="yes"/>
      <point x="248" y="406"/>
      <point x="194" y="440"/>
      <point x="194" y="498" type="curve" smooth="yes"/>
      <point x="194" y="614"/>
      <point x="321" y="646"/>
    </contour>
  </outline>
</glyph>
<glyph name="scaron" format="1">
  <advance width="450"/>
  <unicode hex="0161"/>
  <outline>
    <contour>
      <point x="458" y="718" type="line"/>
      <point x="320" y="625" type="line"/>
      <point x="241" y="717" type="line"/>
      <point x="211" y="688" type="line"/>
      <point x="307" y="575" type="line"/>
      <point x="474" y="687" type="line"/>
    </contour>
    <contour>
      <point x="432" y="394" type="line"/>
      <point x="436" y="410"/>
      <point x="436" y="417"/>
      <point x="436" y="424" type="curve" smooth="yes"/>
      <point x="436" y="490"/>
      <point x="357" y="505"/>
      <point x="307" y="505" type="curve" smooth="yes"/>
      <point x="237" y="505"/>
      <point x="105" y="481"/>
      <point x="105" y="360" type="curve" smooth="yes"/>
      <point x="105" y="230"/>
      <point x="344" y="269"/>
      <point x="344" y="160" type="curve" smooth="yes"/>
      <point x="344" y="84"/>
      <point x="262" y="31"/>
      <point x="185" y="31" type="curve" smooth="yes"/>
      <point x="126" y="31"/>
      <point x="71" y="59"/>
      <point x="60" y="112" type="curve"/>
      <point x="24" y="107" type="line"/>
      <point x="33" y="35"/>
      <point x="99" y="0"/>
      <point x="179" y="0" type="curve" smooth="yes"/>
      <point x="234" y="0"/>
      <point x="383" y="35"/>
      <point x="383" y="168" type="curve" smooth="yes"/>
      <point x="383" y="225"/>
      <point x="337" y="258"/>
      <point x="249" y="284" type="curve" smooth="yes"/>
      <point x="179" y="304"/>
      <point x="142" y="327"/>
      <point x="142" y="365" type="curve" smooth="yes"/>
      <point x="142" y="424"/>
      <point x="190" y="475"/>
      <point x="300" y="475" type="curve" smooth="yes"/>
      <point x="347" y="475"/>
      <point x="402" y="459"/>
      <point x="402" y="408" type="curve" smooth="yes"/>
      <point x="402" y="402"/>
      <point x="402" y="395"/>
      <point x="400" y="386" type="curve"/>
    </contour>
  </outline>
</glyph>
<glyph name="Tcaron" format="1">
  <advance width="512"/>
  <unicode hex="0164"/>
  <outline>
    <contour>
      <point x="505" y="884" type="line"/>
      <point x="521" y="854" type="line"/>
      <point x="357" y="743" type="line"/>
      <point x="262" y="855" type="line"/>
      <point x="292" y="883" type="line"/>
      <point x="371" y="792" type="line"/>
    </contour>
    <contour>
      <point x="178" y="2" type="line"/>
      <point x="314" y="644" type="line"/>
      <point x="92" y="644" type="line"/>
      <point x="100" y="681" type="line"/>
      <point x="598" y="681" type="line"/>
      <point x="590" y="644" type="line"/>
      <point x="352" y="644" type="line"/>
      <point x="217" y="9" type="line"/>
    </contour>
  </outline>
</glyph>
<glyph name="tcaron" format="1">
  <advance width="419"/>
  <unicode hex="0165"/>
  <outline>
    <contour>
      <point x="448" y="744" type="line"/>
      <point x="498" y="713" type="line"/>
      <point x="379" y="558" type="line"/>
      <point x="350" y="577" type="line"/>
      <point x="428" y="677" type="line"/>
      <point x="395" y="699" type="line"/>
    </contour>
    <contour>
      <point x="399" y="502" type="line"/>
      <point x="391" y="465" type="line"/>
      <point x="247" y="465" type="line"/>
      <point x="150" y="9" type="line"/>
      <point x="111" y="2" type="line"/>
      <point x="209" y="465" type="line"/>
      <point x="65" y="465" type="line"/>
      <point x="73" y="502" type="line"/>
      <point x="217" y="502" type="line"/>
      <point x="253" y="669" type="line"/>
      <point x="292" y="676" type="line"/>
      <point x="255" y="502" type="line"/>
    </contour>
  </outline>
</glyph>
<glyph name="uring" format="1">
  <advance width="505"/>
  <unicode hex="016F"/>
  <outline>
    <contour>
      <point x="110" y="291" type="curve"/>
      <point x="127" y="368"/>
      <point x="158" y="465"/>
      <point x="171" y="502" type="curve"/>
      <point x="134" y="495" type="line"/>
      <point x="108" y="425"/>
      <point x="84" y="335"/>
      <point x="75" y="291" type="curve" smooth="yes"/>
      <point x="62" y="230"/>
      <point x="49" y="168"/>
      <point x="49" y="116" type="curve" smooth="yes"/>
      <point x="49" y="45"/>
      <point x="74" y="-6"/>
      <point x="160" y="-6" type="curve" smooth="yes"/>
      <point x="235" y="-6"/>
      <point x="321" y="47"/>
      <point x="369" y="90" type="curve"/>
      <point x="350" y="2" type="line"/>
      <point x="395" y="9" type="line"/>
      <point x="500" y="502" type="line"/>
      <point x="460" y="495" type="line"/>
      <point x="391" y="175" type="line" smooth="yes"/>
      <point x="385" y="149"/>
      <point x="375" y="132"/>
      <point x="365" y="123" type="curve" smooth="yes"/>
      <point x="336" y="97"/>
      <point x="244" y="26"/>
      <point x="168" y="26" type="curve" smooth="yes"/>
      <point x="104" y="26"/>
      <point x="84" y="66"/>
      <point x="84" y="123" type="curve" smooth="yes"/>
      <point x="84" y="171"/>
      <point x="98" y="231"/>
    </contour>
    <contour>
      <point x="341" y="587" type="curve" smooth="yes"/>
      <point x="401" y="587"/>
      <point x="494" y="634"/>
      <point x="494" y="714" type="curve" smooth="yes"/>
      <point x="494" y="755"/>
      <point x="463" y="792"/>
      <point x="405" y="792" type="curve" smooth="yes"/>
      <point x="328" y="792"/>
      <point x="252" y="730"/>
      <point x="252" y="663" type="curve" smooth="yes"/>
      <point x="252" y="620"/>
      <point x="286" y="587"/>
    </contour>
    <contour>
      <point x="397" y="767" type="curve" smooth="yes"/>
      <point x="439" y="767"/>
      <point x="467" y="742"/>
      <point x="467" y="708" type="curve" smooth="yes"/>
      <point x="467" y="656"/>
      <point x="401" y="611"/>
      <point x="348" y="611" type="curve" smooth="yes"/>
      <point x="304" y="611"/>
      <point x="278" y="634"/>
      <point x="278" y="668" type="curve" smooth="yes"/>
      <point x="278" y="728"/>
      <point x="355" y="767"/>
    </contour>
  </outline>
</glyph>
<glyph name="Zcaron" format="1">
  <advance width="611"/>
  <unicode hex="017D"/>
  <outline>
    <contour>
      <point x="558" y="884" type="line"/>
      <point x="574" y="854" type="line"/>
      <point x="410" y="743" type="line"/>
      <point x="315" y="855" type="line"/>
      <point x="345" y="883" type="line"/>
      <point x="424" y="792" type="line"/>
    </contour>
    <contour>
      <point x="17" y="0" type="line"/>
      <point x="6" y="44" type="line"/>
      <point x="598" y="639" type="line"/>
      <point x="163" y="639" type="line"/>
      <point x="181" y="681" type="line"/>
      <point x="636" y="681" type="line"/>
      <point x="647" y="637" type="line"/>
      <point x="53" y="42" type="line"/>
      <point x="510" y="42" type="line"/>
      <point x="494" y="0" type="line"/>
    </contour>
  </outline>
</glyph>
<glyph name="caron" format="1">
  <advance width="490"/>
  <unicode hex="02C7"/>
  <outline>
    <contour>
      <point x="456" y="718" type="line"/>
      <point x="471" y="687" type="line"/>
      <point x="306" y="575" type="line"/>
      <point x="210" y="688" type="line"/>
      <point x="240" y="717" type="line"/>
      <point x="319" y="625" type="line"/>
    </contour>
  </outline>
</glyph>
<glyph name="breve" format="1">
  <advance width="490"/>
  <unicode hex="02D8"/>
  <outline>
    <contour>
      <point x="327" y="609" type="curve" smooth="yes"/>
      <point x="380" y="609"/>
      <point x="433" y="634"/>
      <point x="464" y="683" type="curve"/>
      <point x="478" y="666" type="line"/>
      <point x="447" y="617"/>
      <point x="382" y="582"/>
      <point x="323" y="582" type="curve" smooth="yes"/>
      <point x="257" y="582"/>
      <point x="210" y="614"/>
      <point x="195" y="662" type="curve"/>
      <point x="215" y="679" type="line"/>
      <point x="240" y="621"/>
      <point x="288" y="609"/>
    </contour>
  </outline>
</glyph>
<glyph name="ogonek" format="1">
  <advance width="490"/>
  <unicode hex="02DB"/>
  <outline>
    <contour>
      <point x="323" y="-149" type="curve"/>
      <point x="335" y="-172" type="line"/>
      <point x="313" y="-191"/>
      <point x="272" y="-209"/>
      <point x="235" y="-209" type="curve" smooth="yes"/>
      <point x="186" y="-209"/>
      <point x="154" y="-179"/>
      <point x="154" y="-134" type="curve" smooth="yes"/>
      <point x="154" y="-64"/>
      <point x="226" y="-6"/>
      <point x="281" y="21" type="curve" smooth="yes"/>
      <point x="293" y="27" type="line"/>
      <point x="307" y="5" type="line"/>
      <point x="274" y="-15" type="line" smooth="yes"/>
      <point x="242" y="-34"/>
      <point x="186" y="-71"/>
      <point x="185" y="-127" type="curve" smooth="yes"/>
      <point x="185" y="-158"/>
      <point x="209" y="-177"/>
      <point x="242" y="-177" type="curve" smooth="yes"/>
      <point x="277" y="-177"/>
      <point x="295" y="-166"/>
    </contour>
  </outline>
</glyph>
<glyph name="emdash" format="1">
  <advance width="867"/>
  <unicode hex="2014"/>
  <outline>
    <contour>
      <point x="802" y="231" type="line"/>
      <point x="817" y="269" type="line"/>
      <point x="82" y="269" type="line"/>
      <point x="66" y="231" type="line"/>
    </contour>
  </outline>
</glyph>
<glyph name="quoteleft" format="1">
  <advance width="172"/>
  <unicode hex="2018"/>
  <outline>
    <contour>
      <point x="152" y="570" type="line"/>
      <point x="204" y="614" type="line"/>
      <point x="171" y="636" type="line"/>
      <point x="248" y="736" type="line"/>
      <point x="220" y="755" type="line"/>
      <point x="101" y="600" type="line"/>
    </contour>
  </outline>
</glyph>
<glyph name="quoteright" format="1">
  <advance width="172"/>
  <unicode hex="2019"/>
  <outline>
    <contour>
      <point x="195" y="756" type="line"/>
      <point x="246" y="726" type="line"/>
      <point x="127" y="571" type="line"/>
      <point x="99" y="589" type="line"/>
      <point x="176" y="689" type="line"/>
      <point x="143" y="711" type="line"/>
    </contour>
  </outline>
</glyph>
<glyph name="quotesinglbase" format="1">
  <advance width="305"/>
  <unicode hex="201A"/>
  <outline>
    <contour>
      <point x="118" y="61" type="line"/>
      <point x="169" y="31" type="line"/>
      <point x="50" y="-124" type="line"/>
      <point x="22" y="-106" type="line"/>
      <point x="99" y="-6" type="line"/>
      <point x="66" y="16" type="line"/>
    </contour>
  </outline>
</glyph>
<glyph name="quotedblleft" format="1">
  <advance width="338"/>
  <unicode hex="201C"/>
  <outline>
    <contour>
      <point x="323" y="570" type="line"/>
      <point x="272" y="600" type="line"/>
      <point x="391" y="755" type="line"/>
      <point x="419" y="736" type="line"/>
      <point x="342" y="636" type="line"/>
      <point x="375" y="614" type="line"/>
    </contour>
    <contour>
      <point x="150" y="570" type="line"/>
      <point x="99" y="600" type="line"/>
      <point x="218" y="755" type="line"/>
      <point x="247" y="736" type="line"/>
      <point x="169" y="636" type="line"/>
      <point x="202" y="614" type="line"/>
    </contour>
  </outline>
</glyph>
<glyph name="ellipsis" format="1">
  <advance width="724"/>
  <unicode hex="2026"/>
  <outline>
    <contour>
      <point x="93" y="74" type="line"/>
      <point x="72" y="9" type="line"/>
      <point x="17" y="1" type="line"/>
      <point x="37" y="66" type="line"/>
    </contour>
    <contour>
      <point x="360" y="74" type="line"/>
      <point x="339" y="9" type="line"/>
      <point x="283" y="1" type="line"/>
      <point x="304" y="66" type="line"/>
    </contour>
    <contour>
      <point x="626" y="74" type="line"/>
      <point x="605" y="9" type="line"/>
      <point x="550" y="1" type="line"/>
      <point x="570" y="66" type="line"/>
    </contour>
  </outline>
</glyph>
<glyph name="guilsinglleft" format="1">
  <advance width="394"/>
  <unicode hex="2039"/>
  <outline>
    <contour>
      <point x="239" y="71" type="line"/>
      <point x="78" y="249" type="line"/>
      <point x="333" y="433" type="line"/>
      <point x="351" y="407" type="line"/>
      <point x="132" y="249" type="line"/>
      <point x="267" y="98" type="line"/>
    </contour>
  </outline>
</glyph>
<glyph name="Euro" format="1">
  <advance width="653"/>
  <unicode hex="20AC"/>
  <outline>
    <contour>
      <point x="374" y="0" type="curve" smooth="yes"/>
      <point x="432" y="0"/>
      <point x="491" y="15"/>
      <point x="542" y="44" type="curve"/>
      <point x="522" y="69" type="line"/>
      <point x="483" y="48"/>
      <point x="435" y="35"/>
      <point x="374" y="35" type="curve" smooth="yes"/>
      <point x="266" y="35"/>
      <point x="180" y="139"/>
      <point x="180" y="247" type="curve" smooth="yes"/>
      <point x="180" y="255"/>
      <point x="181" y="263"/>
      <point x="182" y="272" type="curve"/>
      <point x="417" y="272" type="line"/>
      <point x="434" y="310" type="line"/>
      <point x="188" y="310" type="line"/>
      <point x="198" y="340"/>
      <point x="208" y="370"/>
      <point x="222" y="401" type="curve"/>
      <point x="467" y="401" type="line"/>
      <point x="482" y="440" type="line"/>
      <point x="243" y="440" type="line"/>
      <point x="294" y="528"/>
      <point x="418" y="663"/>
      <point x="521" y="663" type="curve" smooth="yes"/>
      <point x="582" y="663"/>
      <point x="623" y="645"/>
      <point x="649" y="622" type="curve"/>
      <point x="679" y="646" type="line"/>
      <point x="645" y="681"/>
      <point x="596" y="699"/>
      <point x="534" y="699" type="curve" smooth="yes"/>
      <point x="384" y="699"/>
      <point x="245" y="514"/>
      <point x="207" y="440" type="curve"/>
      <point x="109" y="440" type="line"/>
      <point x="94" y="401" type="line"/>
      <point x="187" y="401" type="line"/>
      <point x="176" y="376"/>
      <point x="166" y="346"/>
      <point x="155" y="310" type="curve"/>
      <point x="81" y="310" type="line"/>
      <point x="66" y="272" type="line"/>
      <point x="147" y="272" type="line"/>
      <point x="145" y="259"/>
      <point x="144" y="247"/>
      <point x="144" y="235" type="curve" smooth="yes"/>
      <point x="144" y="105"/>
      <point x="243" y="0"/>
    </contour>
  </outline>
</glyph>
<glyph name="trademark" format="1">
  <advance width="549"/>
  <unicode hex="2122"/>
  <outline>
    <contour>
      <point x="376" y="699" type="line"/>
      <point x="97" y="699" type="line"/>
      <point x="91" y="672" type="line"/>
      <point x="221" y="672" type="line"/>
      <point x="181" y="483" type="line"/>
      <point x="211" y="490" type="line"/>
      <point x="249" y="672" type="line"/>
      <point x="370" y="672" type="line"/>
    </contour>
    <contour>
      <point x="636" y="698" type="line"/>
      <point x="598" y="692" type="line"/>
      <point x="494" y="512" type="line"/>
      <point x="487" y="697" type="line"/>
      <point x="444" y="691" type="line"/>
      <point x="315" y="482" type="line"/>
      <point x="350" y="490" type="line"/>
      <point x="459" y="668" type="line"/>
      <point x="469" y="480" type="line"/>
      <point x="508" y="488" type="line"/>
      <point x="612" y="666" type="line"/>
      <point x="632" y="482" type="line"/>
      <point x="658" y="486" type="line"/>
    </contour>
  </outline>
</glyph>
